<?xml version="1.0" encoding="UTF-8" standalone="no"?>
<!-- Created with Inkscape (http://www.inkscape.org/) -->

<svg
   width="498.77844"
   height="428.0611"
   viewBox="0 0 131.96846 113.25783"
   version="1.1"
   id="svg5"
   inkscape:export-filename="..\..\..\Mario\Drive\Proyect Komuna Lingvo\Nia-Tero-Misc\Runas\magna-tero.svg"
   inkscape:export-xdpi="112.24385"
   inkscape:export-ydpi="112.24385"
   inkscape:version="1.2.2 (732a01da63, 2022-12-09)"
   sodipodi:docname="dibujo.svg"
   xmlns:inkscape="http://www.inkscape.org/namespaces/inkscape"
   xmlns:sodipodi="http://sodipodi.sourceforge.net/DTD/sodipodi-0.dtd"
   xmlns="http://www.w3.org/2000/svg"
   xmlns:svg="http://www.w3.org/2000/svg">
  <sodipodi:namedview
     id="namedview7"
     pagecolor="#ffffff"
     bordercolor="#000000"
     borderopacity="0.25"
     inkscape:showpageshadow="true"
     inkscape:pageopacity="0.0"
     inkscape:pagecheckerboard="false"
     inkscape:deskcolor="#d1d1d1"
     inkscape:document-units="mm"
     showgrid="false"
     showborder="true"
     borderlayer="true"
     shape-rendering="auto"
     inkscape:lockguides="true"
     inkscape:zoom="0.685"
     inkscape:cx="332.84671"
     inkscape:cy="255.47445"
     inkscape:window-width="1920"
     inkscape:window-height="1017"
     inkscape:window-x="-8"
     inkscape:window-y="-8"
     inkscape:window-maximized="1"
     inkscape:current-layer="g1029">
    <sodipodi:guide
       position="0.0003577095,132.28992"
       orientation="250,0"
       inkscape:locked="true"
       id="guide357" />
    <sodipodi:guide
       position="0.0003577095,66.144083"
       orientation="0,250.00001"
       inkscape:locked="true"
       id="guide359" />
    <sodipodi:guide
       position="66.146194,66.144083"
       orientation="-250,0"
       inkscape:locked="true"
       id="guide361" />
    <sodipodi:guide
       position="66.146194,132.28992"
       orientation="0,-250.00001"
       inkscape:locked="true"
       id="guide363" />
  </sodipodi:namedview>
  <defs
     id="defs2" />
  <g
     inkscape:label="Silentu"
     inkscape:groupmode="layer"
     id="g1029"
     style="display:inline"
     sodipodi:insensitive="true"
     transform="translate(-0.17445559,-9.4374893)">
    <g
       id="path1027">
      <path
         style="color:#000000;fill:#503a30;stroke-width:2.64583;stroke-linejoin:round;-inkscape-stroke:none"
         d="m 66.348123,121.37143 a 3.6205188,3.6205188 0 0 1 -3.119912,-1.76998 L 1.9889935,16.466794 A 3.6205188,3.6205188 0 0 1 5.0955352,10.998357 L 127.20742,10.759687 a 3.6205188,3.6205188 0 0 1 3.12755,5.456979 L 69.460397,119.58999 a 3.6205188,3.6205188 0 0 1 -3.112274,1.78144 z M 66.32903,110.63886 120.87404,18.011477 11.455649,18.227233 Z"
         id="path9137" />
      <path
         style="color:#000000;fill:#503a30;stroke-linejoin:round;-inkscape-stroke:none"
         d="M 127.20508,9.4375 5.09375,9.6757813 C 1.3311094,9.6829206 -1.0689051,13.906945 0.8515625,17.142578 L 62.089844,120.27734 a 1.3230472,1.3230472 0 0 0 0.002,0 c 0.892048,1.50008 2.514498,2.42185 4.259765,2.41797 1.743989,-0.004 3.362124,-0.93127 4.248047,-2.43359 L 131.47461,16.888672 c 1.90883,-3.243124 -0.50637,-7.4588291 -4.26953,-7.451172 z m 0.006,2.644531 c 1.84453,-0.0038 2.91999,1.873257 1.98437,3.462891 L 68.320312,118.91797 c -0.413409,0.70105 -1.160745,1.12943 -1.974609,1.13086 -0.814116,0.002 -1.564354,-0.42331 -1.980469,-1.12305 L 3.1269531,15.791016 C 2.1856482,14.205091 3.253422,12.323812 5.0976562,12.320313 Z m -6.33985,4.607422 -109.417965,0.214844 a 1.3230472,1.3230472 0 0 0 -1.134766,1.998047 l 54.873047,92.412106 a 1.3230472,1.3230472 0 0 0 2.277344,-0.004 l 54.54492,-92.626956 a 1.3230472,1.3230472 0 0 0 -1.14258,-1.994141 z M 118.55664,19.337891 66.324219,108.03906 13.777344,19.546875 Z"
         id="path9139" />
    </g>
  </g>
  <g
     inkscape:label="Plago"
     inkscape:groupmode="layer"
     id="g1079"
     style="display:none;stroke:#503a30;stroke-width:2.70575"
     transform="matrix(0.97785651,0,0,0.97785651,1.4057751,-6.7212607)"
     sodipodi:insensitive="true">
    <g
       id="path1077">
      <path
         style="color:#000000;fill:#503a30;stroke:none;stroke-linejoin:round;-inkscape-stroke:none"
         d="m 128.62083,8.1953392 -0.40903,0.00106 c -0.31321,0.062991 -0.62408,0.1369575 -0.92376,0.2494362 -0.19959,0.082095 -0.39343,0.1778799 -0.56599,0.3091528 -0.12026,0.090698 -0.23772,0.1850839 -0.3546,0.2800872 -0.0796,0.069403 -0.16064,0.1367025 -0.23834,0.2082158 -0.0798,0.071175 -0.15982,0.1421336 -0.23992,0.212972 -0.0281,0.023947 -0.056,0.048391 -0.084,0.0724 -0.007,0.00764 -0.0133,0.014786 -0.0206,0.022724 -0.0451,0.044519 -0.0781,0.078928 -0.12577,0.125775 -0.0856,0.085348 -0.01,0.00659 -0.0761,0.079799 -0.0192,0.020464 -0.0392,0.042483 -0.0587,0.063944 -0.0386,0.067887 -0.0777,0.135921 -0.11521,0.2045158 -0.0907,0.165458 -0.18307,0.329999 -0.27427,0.495173 -0.0904,0.161471 -0.17708,0.325468 -0.26687,0.487246 -0.0935,0.168978 -0.18685,0.338254 -0.28485,0.504686 -0.0974,0.167195 -0.19511,0.334121 -0.30175,0.495701 -0.0583,0.08942 -0.11582,0.178724 -0.1744,0.267933 -0.0315,0.05744 -0.0627,0.115243 -0.0951,0.17228 -0.0616,0.109 -0.12675,0.216284 -0.18708,0.326064 -0.004,0.0071 -0.008,0.01404 -0.0122,0.02114 -0.002,0.0031 -0.003,0.0064 -0.005,0.0095 -0.0563,0.102637 -0.11306,0.20487 -0.17016,0.307039 -0.12369,0.219177 -0.24784,0.438345 -0.37257,0.656883 -0.12256,0.216078 -0.24726,0.431157 -0.3768,0.643144 -0.1164,0.194701 -0.23629,0.386754 -0.35883,0.577614 -0.0387,0.05853 -0.0774,0.116703 -0.11573,0.175451 -4.2e-4,6.4e-4 -0.001,0.0014 -0.001,0.0021 -0.001,0.0019 -0.002,0.0039 -0.004,0.0058 -0.0884,0.147171 -0.17735,0.293823 -0.26687,0.440212 h 5.3e-4 L 66.347937,110.36322 10.216877,15.834321 h 0.01638 C 9.9000871,15.142018 9.5099505,14.479383 9.1245365,13.815051 8.9731354,13.607912 8.8341139,13.39212 8.6964787,13.175607 8.517991,12.893286 8.3418122,12.609358 8.1669553,12.324776 7.9986659,12.049018 7.8319438,11.772749 7.6686115,11.494027 7.5120174,11.226042 7.3637293,10.953008 7.2178297,10.679131 7.1887561,10.624821 7.1600918,10.570023 7.1316896,10.515307 7.1011326,10.476514 7.0406441,10.399547 7.0402649,10.399044 6.8882554,10.194419 6.815451,10.071726 6.6798509,9.8594799 6.625016,9.7699755 6.580763,9.6929519 6.5318803,9.6190277 6.5316282,9.6187568 6.5316038,9.6182418 6.5313518,9.6179708 6.5183418,9.6039813 6.5056124,9.5901456 6.4927737,9.5756935 6.4497518,9.5254606 6.4073867,9.4750519 6.3680557,9.4219098 6.3431959,9.397521 6.3191355,9.3721142 6.2951273,9.3468675 6.0963694,9.1563741 5.9148188,9.0419211 5.6636099,8.8823456 5.4424662,8.7418679 5.564206,8.8198308 5.4992569,8.7798231 c -0.00687,-0.00295 -0.013756,-0.006 -0.02061,-0.00898 C 5.4374527,8.7520512 5.3949761,8.7367023 5.3528717,8.7201064 5.3016137,8.7030464 5.252155,8.681238 5.2017303,8.6619751 5.1397834,8.6371741 5.0773343,8.6136097 5.0157101,8.5879898 4.9548412,8.5749088 4.8939494,8.5617663 4.8355031,8.5398993 c 0.00601,0.00141 0.00936,0.00202 0.010569,0.00211 -0.00529,-0.00311 -0.090964,-0.028914 -0.1204903,-0.040692 -0.013212,-0.00527 -0.020464,-0.0084 -0.023253,-0.00951 9.32e-4,2.466e-4 0.00216,5.259e-4 0.00423,0.00106 -0.010514,-0.004 -0.027549,-0.01018 -0.042806,-0.015854 C 4.5870396,8.4713218 4.5102048,8.4672809 4.4338686,8.459044 4.3128626,8.454404 4.1917794,8.445193 4.0708122,8.442133 4.0502602,8.441614 4.0306262,8.440853 4.0110952,8.438963 l -0.300169,5.285e-4 A 3.7034853,3.7034853 0 0 0 0.53325799,14.033308 L 63.176081,119.53106 a 3.7034853,3.7034853 0 0 0 3.19088,1.81105 3.7034853,3.7034853 0 0 0 3.184011,-1.82268 L 131.82017,13.77753 a 3.7034853,3.7034853 0 0 0 -3.19934,-5.5821908 z"
         id="path8879" />
      <path
         style="color:#000000;fill:#503a30;stroke:none;stroke-linejoin:round;-inkscape-stroke:none"
         d="m 128.61719,6.8417969 -0.40821,0.00195 a 1.3530103,1.3530103 0 0 0 -0.26367,0.025391 c -0.34426,0.069237 -0.72764,0.1584755 -1.13281,0.3105469 a 1.3530103,1.3530103 0 0 0 -0.0391,0.015625 c -0.25541,0.1050547 -0.55845,0.2481544 -0.86524,0.4804687 -0.14239,0.1073924 -0.27372,0.2103994 -0.39453,0.3085938 a 1.3530103,1.3530103 0 0 0 -0.0352,0.03125 c -0.0633,0.055193 -0.15423,0.1298933 -0.26563,0.2324219 -0.0728,0.064907 -0.14672,0.1298827 -0.2207,0.1953125 -0.0261,0.022407 -0.0524,0.044879 -0.0684,0.058594 a 1.3530103,1.3530103 0 0 0 -0.11524,0.1132813 c -0.0177,0.019346 -0.0236,0.023902 -0.0195,0.019531 -0.0267,0.026851 -0.0567,0.057025 -0.0781,0.078125 -4.7e-4,4.178e-4 -10e-4,0.00141 -0.002,0.00195 a 1.3530103,1.3530103 0 0 0 -0.006,0.00391 c -0.002,0.00214 -0.004,0.00406 -0.006,0.00586 -1.3e-4,1.138e-4 0,0.00195 0,0.00195 -0.008,0.00765 -0.0182,0.016128 -0.0156,0.013672 -0.009,0.00843 -0.0176,0.017578 -0.0176,0.017578 0,0 -0.0293,0.029297 -0.0293,0.029297 0,0 0.97851,0.9335937 0.97851,0.9335937 -3e-5,6.51e-5 -1.06279,-0.8372034 -1.04101,-0.8632812 -0.0177,0.019215 -0.0357,0.038322 -0.0488,0.052734 a 1.3530103,1.3530103 0 0 0 -0.17578,0.2421875 c -0.0365,0.064253 -0.0783,0.1391709 -0.125,0.2246093 -0.0861,0.1570288 -0.1775,0.3200136 -0.27149,0.4902344 l 0.002,-0.00781 c -0.10107,0.1805223 -0.18677,0.3465893 -0.26758,0.4921883 a 1.3530103,1.3530103 0 0 0 -0.002,0.002 c -0.0941,0.170103 -0.18053,0.328155 -0.26562,0.472656 a 1.3530103,1.3530103 0 0 0 -0.004,0.0059 c -0.0965,0.165571 -0.18176,0.31049 -0.26172,0.431641 a 1.3530103,1.3530103 0 0 0 -0.004,0.0059 c -0.061,0.0936 -0.11765,0.181091 -0.17188,0.263672 a 1.3530103,1.3530103 0 0 0 -0.0566,0.0918 c -0.0344,0.06272 -0.0612,0.114257 -0.084,0.154297 a 1.3530103,1.3530103 0 0 0 -0.002,0.0039 c -0.0454,0.08036 -0.11112,0.189842 -0.18554,0.324219 -8.5e-4,0.0014 -0.002,0.0034 -0.002,0.0039 -0.003,0.0051 -0.005,0.0066 -0.008,0.01172 a 1.3530103,1.3530103 0 0 0 -0.0176,0.03125 c -0.0531,0.09684 -0.10726,0.194818 -0.16211,0.292969 -0.12297,0.217912 -0.24586,0.434393 -0.36914,0.65039 a 1.3530103,1.3530103 0 0 0 -0.002,0.0039 c -0.11834,0.208642 -0.2368,0.41127 -0.35547,0.605468 a 1.3530103,1.3530103 0 0 0 -0.006,0.01172 c -0.10751,0.179841 -0.21957,0.359774 -0.33593,0.541016 -0.0346,0.05229 -0.0722,0.10607 -0.11133,0.166015 0.008,-0.01228 -0.01,0.0171 -0.0254,0.04297 a 1.3530103,1.3530103 0 0 0 -0.006,0.0078 c -0.0864,0.143844 -0.17391,0.288047 -0.26172,0.43164 a 1.3530103,1.3530103 0 0 0 0,0.03516 l -0.01,-0.01563 -54.6314,92.775296 -54.888672,-92.433599 a 1.3530103,1.3530103 0 0 0 -0.002,-0.02148 c -0.36585,-0.76021 -0.775699,-1.452011 -1.158203,-2.111328 a 1.3530103,1.3530103 0 0 0 -0.07813,-0.119141 C 10.097481,12.854337 9.9735511,12.663408 9.8398438,12.453125 l -0.00195,-0.0039 C 9.664717,12.175258 9.4938126,11.898321 9.3222656,11.619141 l -0.00195,-0.002 C 9.154847,11.346039 8.9929436,11.078473 8.8359375,10.810547 8.6935916,10.566945 8.5545865,10.310421 8.4121094,10.042969 a 1.3530103,1.3530103 0 0 0 -0.00195,-0.002 C 8.3851675,9.9943363 8.3591201,9.944764 8.3320313,9.8925781 A 1.3530103,1.3530103 0 0 0 8.1953125,9.6777344 c -0.026938,-0.034198 -0.0618,-0.077637 -0.068359,-0.085937 L 8.125,9.5898438 C 8.1246877,9.5894482 8.12112,9.5840138 8.12109,9.5839838 8.0104322,9.4344565 7.9608654,9.35156 7.8339844,9.1523438 l -0.00977,-0.013672 c -0.00221,-0.00347 -0.00164,-0.00427 -0.00391,-0.00781 C 7.77913,9.0627705 7.7341074,8.9848816 7.6601562,8.8730469 A 1.3530103,1.3530103 0 0 0 7.5214844,8.6972656 c -6.3e-5,-6.77e-5 0.240276,0.3555594 0.2402343,0.3554688 -4.16e-5,-9.06e-5 0.046898,0.1172532 0.046875,0.1171875 -2.31e-5,-6.57e-5 -0.048786,-0.1170969 -0.048828,-0.1171875 -4.16e-5,-9.06e-5 -0.2382182,-0.355401 -0.2382812,-0.3554688 -0.00103,-0.0011 -0.00102,-9.49e-4 -0.00195,-0.00195 l -0.00195,-0.00195 c -0.00632,-0.00684 -0.01155,-0.013237 -0.013672,-0.015625 -0.022999,-0.02738 -0.043958,-0.053966 -0.048828,-0.060547 A 1.3530103,1.3530103 0 0 0 7.3164062,8.4570313 c -0.00108,-0.00106 -0.015714,-0.016362 -0.041016,-0.042969 A 1.3530103,1.3530103 0 0 0 7.2304687,8.3710938 C 6.9300283,8.0831458 6.6379945,7.8986117 6.3886719,7.7402344 6.1659836,7.5987755 6.2484517,7.6532176 6.2089844,7.6289062 A 1.3530103,1.3530103 0 0 0 6.0332031,7.5371094 c 0.00222,9.546e-4 -0.00492,-0.00205 -0.013672,-0.00586 C 5.9321501,7.4927243 5.8656778,7.467271 5.8496094,7.4609375 a 1.3530103,1.3530103 0 0 0 -0.070312,-0.025391 c 0.02263,0.00753 -0.023145,-0.00964 -0.074219,-0.029297 l -0.021484,-0.00781 C 5.6195061,7.37299 5.564904,7.3502581 5.5351562,7.3378906 A 1.3530103,1.3530103 0 0 0 5.3007812,7.265625 c -0.026379,-0.00567 0.00553,0.00442 0.00391,0.00391 -0.00362,-0.00129 -0.010676,-0.0048 -0.013672,-0.00586 C 5.270827,7.2565439 5.2610431,7.252992 5.2519531,7.25 5.2364031,7.24488 5.2268251,7.24346 5.2167971,7.24023 c -0.0017,-5.452e-4 -0.00423,-0.00143 -0.00586,-0.00195 -0.00328,-0.00135 0.014843,0.00511 -0.00781,-0.00391 l -0.00391,0.00977 A 1.3530103,1.3530103 0 0 0 5.1875,7.2285156 C 5.155913,7.2164986 5.142467,7.2118486 5.134766,7.2089846 A 1.3530103,1.3530103 0 0 0 5.042969,7.1894536 l 0.00195,-0.00391 a 1.3530103,1.3530103 0 0 0 -0.0039,0.00196 1.3530103,1.3530103 0 0 0 -0.2773437,-0.060547 c -0.096065,-0.00713 -0.158558,-0.01076 -0.1855469,-0.013672 a 1.3530103,1.3530103 0 0 0 -0.091797,-0.00586 c -0.078996,-0.00303 -0.2010254,-0.010936 -0.3457031,-0.015625 -0.032335,-0.00313 -0.044082,-0.00218 -0.035156,-0.00195 a 1.3530103,1.3530103 0 0 0 -0.097656,-0.00391 H 3.7089844 c -3.84863769,0.00733 -6.3042741,4.3291294 -4.33984377,7.6386724 L 62.013672,120.22266 c 0.912122,1.53439 2.570446,2.47622 4.355469,2.47265 1.784907,-0.003 3.441197,-0.95067 4.347656,-2.48828 a 1.3530103,1.3530103 0 0 0 0,-0.002 L 132.98633,14.464844 a 1.3530103,1.3530103 0 0 0 0,-0.002 c 1.95272,-3.317319 -0.51977,-7.6291508 -4.36914,-7.6210941 z M 4.9472656,7.1933594 c -4.069e-4,-3.03e-5 0.038702,0.00575 0.066406,0.00977 a 1.3530103,1.3530103 0 0 0 -0.083984,0.044922 z m 0.089844,0.013672 c 0.050715,0.00741 0.097431,0.013281 0.1074218,0.015625 A 1.3530103,1.3530103 0 0 0 5.0078125,7.3027344 Z M 128.38281,9.5488281 h 0.24024 c 1.88719,-0.00395 2.98859,1.9166219 2.03125,3.5429689 L 68.384766,118.83203 c -0.422929,0.71741 -1.186743,1.15482 -2.019532,1.15625 a 1.3530103,1.3530103 0 0 0 -0.002,0 c -0.832843,0.002 -1.597865,-0.43253 -2.023437,-1.14844 L 1.6972656,13.341797 C 0.73421533,11.719313 1.8261189,9.7965601 3.7128906,9.7929688 l 0.265625,-0.00195 c 0.017678,7.136e-4 0.046524,0.0036 0.058594,0.00391 0.065404,0.00165 0.1749216,0.00806 0.3007812,0.013672 0.013902,6.202e-4 0.018567,0.00137 0.033203,0.00195 h 0.00195 0.00391 c 7.907e-4,6.51e-5 0.00117,0.00189 0.00195,0.00195 0.012957,0.00468 0.014975,0.00359 0.027344,0.00781 0.055429,0.018923 0.08003,0.021864 0.1230469,0.033203 l -0.00195,0.00391 c 0.00406,9.517e-4 0.020451,0.00236 0.029297,0.00391 0.00182,3.186e-4 0.00388,0.00162 0.00586,0.00195 0.050774,0.020235 0.1062363,0.042483 0.1367187,0.054687 a 1.3530103,1.3530103 0 0 0 0.019531,0.00781 c 0.00598,0.00228 0.080659,0.030958 0.15625,0.058594 l 0.00195,0.00195 c 0.0058,0.00357 -0.028805,-0.01965 0.060547,0.03711 0.2517639,0.159928 0.3236281,0.206771 0.4199219,0.298828 5.089e-4,4.86e-4 0.00144,0.0015 0.00195,0.002 0.00182,0.0019 0.00396,0.0039 0.00586,0.0059 0.025773,0.03173 0.05278,0.0686 0.074219,0.09375 0.021702,0.03543 0.039094,0.06612 0.085937,0.142578 a 1.3530103,1.3530103 0 0 0 0.013672,0.02149 c 0.1265313,0.198051 0.2329427,0.370747 0.4160156,0.617187 a 1.3530103,1.3530103 0 0 0 0.00586,0.0078 c 1.022e-4,1.35e-4 0.020471,0.02583 0.029297,0.03711 0.012054,0.02286 0.02258,0.04487 0.035156,0.06836 0.1487239,0.279133 0.3045247,0.56635 0.4746094,0.857422 a 1.3530103,1.3530103 0 0 0 0.00195,0.002 c 0.169211,0.288754 0.3391436,0.571983 0.5097656,0.851563 a 1.3530103,1.3530103 0 0 0 0.00195,0.0039 c 0.1769328,0.287961 0.3565198,0.5765 0.5390625,0.865235 a 1.3530103,1.3530103 0 0 0 0.00195,0.0039 c 0.1204894,0.189541 0.2602486,0.397516 0.4101562,0.609375 0.3844549,0.662574 0.7510863,1.29147 1.0488282,1.910156 l 0.037109,-0.06055 a 1.3530103,1.3530103 0 0 0 0.00195,0.164063 L 65.185547,111.05469 a 1.3530103,1.3530103 0 0 0 2.328125,-0.006 L 123.30859,16.300781 a 1.3530103,1.3530103 0 0 0 0.002,-0.0078 c 0.0781,-0.127858 0.15687,-0.25595 0.23437,-0.384766 -9.4e-4,0.0014 0.003,-0.0048 0.002,-0.0039 4.5e-4,-6.99e-4 0.001,-0.0013 0.002,-0.002 7.5e-4,-0.0012 0.001,-0.0027 0.002,-0.0039 0.033,-0.05047 0.0687,-0.103588 0.10742,-0.16211 a 1.3530103,1.3530103 0 0 0 0.01,-0.01563 c 0.12639,-0.196863 0.25189,-0.39792 0.375,-0.603515 l 0.006,-0.01172 c 0.13733,-0.225119 0.26635,-0.446942 0.39062,-0.666016 l 0.002,-0.002 c 0.12573,-0.220305 0.24908,-0.440487 0.37304,-0.660156 a 1.3530103,1.3530103 0 0 0 0.004,-0.0059 c 0.0528,-0.09453 0.10521,-0.190721 0.1582,-0.287109 0.005,-0.0089 0.0106,-0.01672 0.0156,-0.02539 7e-4,-0.0013 0.001,-0.0026 0.002,-0.0039 0.003,-0.0053 0.007,-0.01048 0.01,-0.01563 a 1.3530103,1.3530103 0 0 0 0.006,-0.01367 c 0.041,-0.07463 0.10342,-0.17727 0.17773,-0.308593 l 0.002,-0.0039 c 0.0272,-0.048 0.0471,-0.08612 0.0684,-0.125 0.0535,-0.08179 0.10421,-0.160498 0.15235,-0.234375 l 0.004,-0.0059 c 0.12998,-0.197407 0.2375,-0.383204 0.33399,-0.548828 l 0.004,-0.0059 c 0.10908,-0.185507 0.20724,-0.363754 0.29883,-0.529296 v -0.002 c 0.0984,-0.177306 0.18419,-0.338493 0.26367,-0.480468 a 1.3530103,1.3530103 0 0 0 0.004,-0.0078 c 0.0881,-0.159607 0.18227,-0.324603 0.27734,-0.498047 a 1.3530103,1.3530103 0 0 0 0,-0.002 c 0.007,-0.01267 0.0177,-0.03107 0.0254,-0.04492 0.0465,-0.04601 0.0786,-0.0807 0.10547,-0.107422 0.002,-0.002 0.006,-0.0059 0.008,-0.0078 0.01,-0.0087 0.0258,-0.02102 0.0332,-0.02734 a 1.3530103,1.3530103 0 0 0 0.0176,-0.01758 c 0.081,-0.07164 0.1624,-0.143893 0.24414,-0.216797 a 1.3530103,1.3530103 0 0 0 0.0156,-0.01367 c 0.0368,-0.03387 0.10236,-0.09077 0.17578,-0.154297 l 0.0156,-0.01172 c 0.009,-0.0074 0.0105,-0.0097 0.0195,-0.01758 0.0985,-0.079759 0.19429,-0.1531668 0.28125,-0.2187505 a 1.3530103,1.3530103 0 0 0 0.004,-0.00391 c 0.0334,-0.025387 0.1188,-0.071005 0.24023,-0.1230469 0.16529,-0.060834 0.37385,-0.1114935 0.60156,-0.1601563 z M 4.2695312,9.6191406 a 1.3530103,1.3530103 0 0 0 0.078125,0.1601563 l -0.080078,-0.017578 c -0.018562,-0.00911 -0.02245,-0.011298 -0.039063,-0.019531 z m -0.099609,0.060547 a 1.3530103,1.3530103 0 0 0 0.019531,0.042969 c -0.00673,-0.00335 -0.029348,-0.013702 -0.029297,-0.013672 z M 121.2207,14.529297 c -10e-4,0.0029 -0.007,0.01391 -0.01,0.01953 l 0.004,-0.01172 c -2.2e-4,4.33e-4 0.006,-0.008 0.006,-0.0078 z m 2.54493,0.638672 c 0,-1.75e-4 -0.0723,0.433773 -0.0723,0.433594 5e-5,-1.55e-4 -0.0618,0.141534 -0.082,0.1875 a 1.3530103,1.3530103 0 0 0 0.1543,-0.621094 z m -0.16016,0.632812 c -10e-4,0.0031 -0.008,0.01955 -0.008,0.01953 1.1e-4,-1.99e-4 -0.0126,0.02142 -0.0293,0.04883 l -0.22852,0.285156 c 0.18022,-0.171202 0.27115,-0.363608 0.26563,-0.353516 z"
         id="path8881" />
    </g>
  </g>
  <g
     inkscape:label="Fiera"
     inkscape:groupmode="layer"
     id="g1115"
     style="display:none"
     sodipodi:insensitive="true"
     transform="translate(-0.17445559,-9.4374893)">
    <path
       style="color:#000000;fill:#503a30;stroke-linecap:round;stroke-linejoin:round;-inkscape-stroke:none"
       d="M 4.8769531,9.65625 A 4.7629761,4.7629761 0 0 0 0.11523437,14.417969 V 117.85352 a 4.7629761,4.7629761 0 0 0 4.76171873,4.76171 H 127.39453 a 4.7629761,4.7629761 0 0 0 4.76172,-4.76171 V 14.417969 A 4.7629761,4.7629761 0 0 0 127.39453,9.65625 Z m 4.7617188,9.525391 H 122.63281 V 113.08984 H 9.6386719 Z"
       id="rect2696" />
    <path
       style="color:#000000;fill:#503a30;stroke-linecap:round;stroke-linejoin:round;-inkscape-stroke:none"
       d="m 70.447266,20.488281 a 3.3072901,3.3072901 0 0 0 -3.748047,2.796875 L 56.533203,93.234375 46.046875,52.496094 a 3.3076208,3.3076208 0 0 0 -6.404297,-0.0098 L 28.722656,94.371094 16.542969,23.759766 A 3.3072901,3.3072901 0 0 0 12.720703,21.0625 3.3072901,3.3072901 0 0 0 10.023438,24.882812 l 14.781249,85.687498 a 3.3076208,3.3076208 0 0 0 6.458985,0.27149 L 42.822266,66.505859 54.232422,110.83203 a 3.3076208,3.3076208 0 0 0 6.476562,-0.34765 L 73.244141,24.236328 a 3.3072901,3.3072901 0 0 0 -2.796875,-3.748047 z"
       id="path2698" />
    <path
       style="color:#000000;fill:#503a30;stroke-linecap:round;stroke-linejoin:round;-inkscape-stroke:none"
       d="m 80.458984,48.330078 a 3.3072901,3.3072901 0 0 0 -3.318359,3.296875 l -0.1875,59.306637 A 3.3072901,3.3072901 0 0 0 80.25,114.25 a 3.3072901,3.3072901 0 0 0 3.318359,-3.29687 l 0.1875,-59.306646 a 3.3072901,3.3072901 0 0 0 -3.296875,-3.316406 z"
       id="path2700" />
    <path
       style="color:#000000;fill:#503a30;stroke-linecap:round;stroke-linejoin:round;-inkscape-stroke:none"
       d="M 93.091797,22.136719 A 3.3072901,3.3072901 0 0 0 89.863281,25.521484 3.3072901,3.3072901 0 0 0 93.248047,28.75 c 7.748983,-0.18266 13.228263,1.406301 16.564453,3.535156 3.33619,2.128856 4.558,4.591693 4.56445,6.945313 0.006,2.35362 -1.26017,4.979843 -4.52539,7.27539 -3.26522,2.295548 -8.52038,4.103489 -15.814451,4.25586 a 3.3072901,3.3072901 0 0 0 -3.238281,3.376953 3.3072901,3.3072901 0 0 0 3.375,3.236328 c 8.308482,-0.173562 14.854012,-2.203121 19.482422,-5.457031 4.62841,-3.25391 7.34915,-7.889005 7.33594,-12.707032 -0.0132,-4.818026 -2.81997,-9.438308 -7.6211,-12.501953 -4.80112,-3.063645 -11.56895,-4.777587 -20.279293,-4.572265 z"
       id="path2702" />
    <path
       style="color:#000000;fill:#503a30;stroke-linecap:round;stroke-linejoin:round;-inkscape-stroke:none"
       d="m 81.009766,31.865234 a 3.3072901,3.3072901 0 0 0 -3.308594,3.306641 3.3072901,3.3072901 0 0 0 3.308594,3.308594 h 0.1875 a 3.3072901,3.3072901 0 0 0 3.30664,-3.308594 3.3072901,3.3072901 0 0 0 -3.30664,-3.306641 z"
       id="path2704" />
    <path
       style="color:#000000;fill:#503a30;stroke-linecap:round;stroke-linejoin:round;-inkscape-stroke:none"
       d="m 93.371094,22.324219 a 3.3072901,3.3072901 0 0 0 -3.320313,3.292968 l -0.375,84.376953 a 3.3072901,3.3072901 0 0 0 3.292969,3.32031 3.3072901,3.3072901 0 0 0 3.322266,-3.29101 l 0.373046,-84.376956 a 3.3072901,3.3072901 0 0 0 -3.292968,-3.322265 z"
       id="path2706" />
  </g>
  <g
     inkscape:label="Stormo"
     inkscape:groupmode="layer"
     id="g1111"
     sodipodi:insensitive="true"
     style="display:none"
     transform="translate(-0.17445559,-9.4374893)">
    <path
       style="color:#000000;fill:#503a30;stroke-linecap:round;stroke-linejoin:round;-inkscape-stroke:none"
       d="m 66.871094,9.7910156 c -4.94924,-0.3093267 -12.902368,0.7559704 -20.81836,5.0781254 -7.915991,4.322155 -15.517625,12.487045 -16.951172,25.144531 -1.00468,8.870818 2.721414,15.993534 7.503907,20.390625 4.782492,4.397091 10.238957,6.532239 14.734375,6.96289 13.927209,1.334198 21.909237,0.458313 38.595703,0.07813 -2.896522,2.409121 -6.665996,5.261047 -10.332031,8.033204 -7.269793,5.497222 -23.830587,21.394804 -37.458985,37.798819 a 4.7624998,4.7624998 0 0 0 0.619141,6.70508 4.7624998,4.7624998 0 0 0 6.707031,-0.61914 c 13.10596,-15.77518 30.278322,-32.054044 35.878906,-36.289056 4.771192,-3.607847 10.860805,-7.6499 14.660161,-11.78711 0.94983,-1.034302 1.80774,-2.073477 2.45898,-3.568359 0.65124,-1.494882 0.99896,-4.068246 -0.28711,-6.152344 -1.28607,-2.084097 -3.222026,-2.837419 -4.890624,-3.240234 -1.668598,-0.402816 -3.415587,-0.502395 -5.548829,-0.462891 -18.743994,0.347107 -25.654103,1.347332 -39.49414,0.02148 -1.789679,-0.171448 -6.150756,-1.69298 -9.195313,-4.492188 -3.044556,-2.799208 -5.153951,-6.411871 -4.486328,-12.306641 1.079959,-9.53549 6.099508,-14.608009 12.050781,-17.857421 5.951274,-3.249413 13.110987,-4.090964 15.660157,-3.931641 6.405429,0.40034 10.049661,2.410889 11.908203,4.498047 1.858542,2.087158 2.297961,4.383016 1.628906,6.96289 C 78.476344,35.917562 71.805447,42.127234 58.744141,40.5 a 4.7624998,4.7624998 0 0 0 -5.314454,4.136719 4.7624998,4.7624998 0 0 0 4.136719,5.316406 C 74.139495,52.017872 86.273659,43.796769 89.035156,33.148437 90.415905,27.824272 89.229118,21.872733 85.298828,17.458984 81.368538,13.045236 75.06309,10.303016 66.871094,9.7910156 Z"
       id="path8359" />
  </g>
  <g
     inkscape:label="Neglektemo"
     inkscape:groupmode="layer"
     id="g1107"
     sodipodi:insensitive="true"
     transform="matrix(0.94427626,0,0,1.0531246,3.9940578,-12.945966)"
     style="display:none">
    <path
       style="color:#000000;fill:#503a30;stroke-linecap:round;stroke-linejoin:round;-inkscape-stroke:none"
       d="m 126.08203,61.091797 -119.7363269,0.375 A 4.7624998,4.7624998 0 0 0 1.5976562,66.244141 4.7624998,4.7624998 0 0 0 6.375,70.992187 l 119.73828,-0.375 a 4.7624998,4.7624998 0 0 0 4.74609,-4.777343 4.7624998,4.7624998 0 0 0 -4.77734,-4.748047 z"
       id="path2821" />
  </g>
  <g
     inkscape:label="Sangon"
     inkscape:groupmode="layer"
     id="g1103"
     sodipodi:insensitive="true"
     style="display:none"
     transform="translate(-0.17445559,-9.4374893)">
    <path
       style="color:#000000;fill:#503a30;fill-opacity:1;stroke:none;stroke-width:9.525;stroke-linecap:round;stroke-linejoin:round;stroke-dasharray:none;stroke-opacity:1"
       d="M 102.12891,9.9511719 A 4.7624998,4.7624998 0 0 0 98.726562,11.255859 L 66.541016,41.761719 34.6875,11.388672 a 4.7624998,4.7624998 0 0 0 -6.734375,0.160156 4.7624998,4.7624998 0 0 0 0.160156,6.732422 l 31.50586,30.041016 -31.439454,29.798828 a 4.7629761,4.7629761 0 0 0 0.05078,6.958984 l 35.654297,32.845702 a 4.7629761,4.7629761 0 0 0 6.4375,0.0156 L 105.44141,85.894531 a 4.7629761,4.7629761 0 0 0 0.0762,-6.964844 L 73.441406,48.34375 105.27734,18.169922 a 4.7624998,4.7624998 0 0 0 0.18164,-6.734375 4.7624998,4.7624998 0 0 0 -3.33007,-1.4843751 z M 66.521484,54.904297 95.25,82.298828 67.126953,107.96094 38.431641,81.527344 Z"
       id="path7780" />
  </g>
  <g
     inkscape:label="Regulo"
     inkscape:groupmode="layer"
     id="g1099"
     sodipodi:insensitive="true"
     style="display:none"
     transform="translate(-0.17445559,-9.4374893)">
    <path
       style="color:#000000;fill:#503a30;stroke-linecap:round;stroke-linejoin:round;-inkscape-stroke:none"
       d="M 10.103516,9.0820313 A 4.7629761,4.7629761 0 0 0 5.3398437,13.84375 v 45.275391 a 4.7624998,4.7624998 0 0 0 4.7636723,4.763671 4.7624998,4.7624998 0 0 0 4.761718,-4.763671 V 18.607422 h 71.94336 A 4.7624998,4.7624998 0 0 0 91.572266,13.84375 4.7624998,4.7624998 0 0 0 86.808594,9.0820313 Z"
       id="path7445" />
    <path
       style="color:#000000;fill:#503a30;stroke-linecap:round;stroke-linejoin:round;-inkscape-stroke:none"
       d="m 120.87891,68.576172 a 4.7624998,4.7624998 0 0 0 -4.78125,4.742187 l -0.16797,39.410161 H 44.714844 a 4.7624998,4.7624998 0 0 0 -4.763672,4.76367 4.7624998,4.7624998 0 0 0 4.763672,4.76172 h 75.957036 a 4.7629761,4.7629761 0 0 0 4.76367,-4.74219 l 0.18554,-44.152345 a 4.7624998,4.7624998 0 0 0 -4.74218,-4.783203 z"
       id="path7442" />
  </g>
  <g
     inkscape:label="Aero"
     inkscape:groupmode="layer"
     id="g1095"
     sodipodi:insensitive="true"
     style="display:none"
     transform="translate(-0.17445559,-9.4374893)">
    <path
       style="color:#000000;fill:#503a30;stroke-linecap:round;stroke-linejoin:round;-inkscape-stroke:none"
       d="M 43.455078,31.992187 C 32.072887,32.156534 23.47794,39.411652 17.816406,46.046875 12.154873,52.682098 9.0429688,59.28125 9.0429688,59.28125 a 4.7624998,4.7624998 0 0 0 2.2636722,6.34375 4.7624998,4.7624998 0 0 0 6.34375,-2.263672 c 0,0 2.648215,-5.549944 7.410156,-11.130859 4.744386,-5.560342 11.210221,-10.560378 18.455078,-10.701172 6.807841,0.154267 11.435953,4.718598 17.240234,10.621094 5.821117,5.919615 12.884893,13.212029 23.777344,13.15625 25.980617,0.192817 37.806637,-26.591797 37.806637,-26.591797 a 4.7624998,4.7624998 0 0 0 -2.38086,-6.300782 4.7624998,4.7624998 0 0 0 -6.30078,2.378907 c 0,0 -9.82897,21.15676 -29.083981,20.992187 a 4.7629761,4.7629761 0 0 0 -0.07031,0 C 77.8683,55.828046 73.369408,51.391759 67.546875,45.470703 61.724342,39.549648 54.630401,32.185557 43.607422,31.992187 a 4.7629761,4.7629761 0 0 0 -0.152344,0 z"
       id="path7181" />
    <path
       style="color:#000000;fill:#503a30;stroke-linecap:round;stroke-linejoin:round;-inkscape-stroke:none"
       d="M 43.552734,65.748047 C 32.170543,65.912393 23.573643,73.167512 17.912109,79.802734 12.250576,86.437956 9.140625,93.037109 9.140625,93.037109 a 4.7624998,4.7624998 0 0 0 2.263672,6.341797 4.7624998,4.7624998 0 0 0 6.34375,-2.263672 c 0,0 2.648215,-5.549945 7.410156,-11.130859 4.74438,-5.560333 11.208279,-10.558412 18.453125,-10.699219 6.807858,0.154254 11.437897,4.716636 17.242188,10.619141 5.821119,5.919618 12.884883,13.213987 23.777343,13.158203 25.980601,0.192804 37.804691,-26.59375 37.804691,-26.59375 a 4.7624998,4.7624998 0 0 0 -2.37891,-6.300781 4.7624998,4.7624998 0 0 0 -6.30078,2.380859 c 0,0 -9.82897,21.156759 -29.083985,20.992188 a 4.7629761,4.7629761 0 0 0 -0.07227,0 C 77.964003,89.583904 73.467064,85.147618 67.644531,79.226562 61.821998,73.305507 54.728057,65.941416 43.705078,65.748047 a 4.7629761,4.7629761 0 0 0 -0.152344,0 z"
       id="path7178" />
  </g>
  <g
     inkscape:label="Boreala"
     inkscape:groupmode="layer"
     id="g1091"
     sodipodi:insensitive="true"
     style="display:none"
     transform="translate(-0.17445559,-9.4374893)">
    <path
       style="color:#000000;fill:#503a30;stroke-linecap:round;stroke-linejoin:round;-inkscape-stroke:none"
       d="m 66.177734,9.1894531 a 4.7624998,4.7624998 0 0 0 -4.736328,4.7871099 l 0.546875,103.955077 a 4.7624998,4.7624998 0 0 0 4.78711,4.73828 4.7624998,4.7624998 0 0 0 4.738281,-4.78711 L 70.964844,13.927734 a 4.7624998,4.7624998 0 0 0 -4.78711,-4.7382809 z"
       id="path1548" />
    <path
       style="color:#000000;fill:#503a30;stroke-linecap:round;stroke-linejoin:round;-inkscape-stroke:none"
       d="m 24.994141,23.941406 a 4.7624998,4.7624998 0 0 0 -3.285157,1.580078 4.7624998,4.7624998 0 0 0 0.373047,6.72461 l 82.490239,73.824216 a 4.7624998,4.7624998 0 0 0 6.72461,-0.37304 4.7624998,4.7624998 0 0 0 -0.37305,-6.724614 L 28.435547,25.148437 a 4.7624998,4.7624998 0 0 0 -3.441406,-1.207031 z"
       id="path1550" />
    <path
       style="color:#000000;fill:#503a30;stroke-linecap:round;stroke-linejoin:round;-inkscape-stroke:none"
       d="m 107.62695,23.888672 a 4.7624998,4.7624998 0 0 0 -3.4375,1.214844 L 21.753906,99.226562 a 4.7624998,4.7624998 0 0 0 -0.357422,6.724608 4.7624998,4.7624998 0 0 0 6.726563,0.35742 L 110.55859,32.185547 a 4.7624998,4.7624998 0 0 0 0.35743,-6.72461 4.7624998,4.7624998 0 0 0 -3.28907,-1.572265 z"
       id="path1552" />
  </g>
  <g
     inkscape:label="Krono"
     inkscape:groupmode="layer"
     id="g1087"
     sodipodi:insensitive="true"
     style="display:none"
     transform="translate(-0.17445559,-9.4374893)">
    <path
       style="color:#000000;fill:#503a30;stroke-linecap:round;stroke-linejoin:round;-inkscape-stroke:none"
       d="m 20.708984,9.359375 a 4.7629761,4.7629761 0 0 0 -3.591797,7.902344 L 60.068359,66.242187 17.875,114.87891 a 4.7629761,4.7629761 0 0 0 3.607422,7.88281 L 111.625,122.56836 a 4.7629761,4.7629761 0 0 0 3.57227,-7.90234 L 72.707031,66.208984 115.01953,17.435547 A 4.7629761,4.7629761 0 0 0 111.43164,9.5527344 Z M 31.228516,18.90625 101.00586,19.054687 66.369141,58.980469 Z M 66.40625,73.470703 101.125,113.06641 31.927734,113.21484 Z"
       id="path1794" />
  </g>
  <g
     inkscape:label="Kosmo"
     inkscape:groupmode="layer"
     id="g1083"
     style="display:none"
     sodipodi:insensitive="true"
     transform="translate(-0.17445559,-9.4374893)">
    <path
       style="color:#000000;fill:#503a30;stroke-linejoin:round;-inkscape-stroke:none"
       d="m 65.855469,-115.84766 c -28.674795,0 -52.238281,22.357042 -52.238281,50.085941 0,27.728899 23.563486,50.085938 52.238281,50.085938 28.674795,0 52.238281,-22.357039 52.238281,-50.085938 0,-27.728899 -23.563486,-50.085941 -52.238281,-50.085941 z m 0,9.65235 c 23.694911,0 42.585941,18.16928 42.585941,40.433591 0,22.264312 -18.89103,40.433594 -42.585941,40.433594 -23.694912,0 -42.585938,-18.169282 -42.585938,-40.433594 0,-22.264311 18.891026,-40.433591 42.585938,-40.433591 z"
       id="path780"
       transform="scale(1,-1)" />
    <path
       style="color:#000000;fill:#503a30;stroke-linecap:round;stroke-linejoin:round;-inkscape-stroke:none"
       d="m 96.683594,74.746094 c -11.717809,0 -21.328125,9.396496 -21.328125,20.978515 0,11.582021 9.610316,20.978521 21.328125,20.978521 11.717806,0 21.328126,-9.3965 21.328126,-20.978521 0,-11.582019 -9.61032,-20.978515 -21.328126,-20.978515 z m 0,5.583984 c 8.756686,0 15.744136,6.888732 15.744136,15.394531 0,8.505801 -6.98745,15.394531 -15.744136,15.394531 -8.756686,0 -15.744141,-6.88873 -15.744141,-15.394531 0,-8.505799 6.987455,-15.394531 15.744141,-15.394531 z"
       id="path5751" />
  </g>
  <g
     inkscape:label="Fajro"
     inkscape:groupmode="layer"
     id="g1075"
     style="display:none;stroke-width:1.00013"
     sodipodi:insensitive="true"
     transform="translate(-0.17445559,-9.4374893)">
    <path
       style="color:#000000;fill:#503a30;stroke-linecap:round;stroke-linejoin:round;-inkscape-stroke:none"
       d="M 4.9707031,9.75 A 4.7629761,4.7629761 0 0 0 0.20898438,14.511719 V 117.94727 a 4.7629761,4.7629761 0 0 0 4.76171872,4.76171 H 127.48828 A 4.7629761,4.7629761 0 0 0 132.25,117.94727 V 14.511719 A 4.7629761,4.7629761 0 0 0 127.48828,9.75 Z m 4.7617188,9.525391 H 122.72656 V 113.18359 H 9.7324219 Z"
       id="rect2696-3" />
    <path
       style="color:#000000;fill:#503a30;stroke-linecap:round;stroke-linejoin:round;-inkscape-stroke:none"
       d="m 70.541016,20.580078 a 3.3072901,3.3072901 0 0 0 -3.75,2.798828 L 56.626953,93.326172 46.140625,52.589844 a 3.3076208,3.3076208 0 0 0 -6.404297,-0.0098 L 28.816406,94.464844 16.636719,23.853516 a 3.3072901,3.3072901 0 0 0 -3.822266,-2.697266 3.3072901,3.3072901 0 0 0 -2.697265,3.820312 l 14.781249,85.687498 a 3.3076208,3.3076208 0 0 0 6.458985,0.27149 L 42.916016,66.599609 54.326172,110.92578 a 3.3076208,3.3076208 0 0 0 6.476562,-0.34765 L 73.337891,24.330078 a 3.3072901,3.3072901 0 0 0 -2.796875,-3.75 z"
       id="path2698-78" />
    <path
       style="color:#000000;fill:#503a30;stroke-linecap:round;stroke-linejoin:round;-inkscape-stroke:none"
       d="m 80.552734,48.421875 a 3.3072901,3.3072901 0 0 0 -3.318359,3.296875 l -0.1875,59.30859 a 3.3072901,3.3072901 0 0 0 3.296875,3.31641 3.3072901,3.3072901 0 0 0 3.318359,-3.29687 l 0.1875,-59.306646 a 3.3072901,3.3072901 0 0 0 -3.296875,-3.318359 z"
       id="path2700-2" />
    <path
       style="color:#000000;fill:#503a30;stroke-linecap:round;stroke-linejoin:round;-inkscape-stroke:none"
       d="m 93.185547,22.230469 a 3.3072901,3.3072901 0 0 0 -3.228516,3.384765 3.3072901,3.3072901 0 0 0 3.384766,3.228516 c 7.748983,-0.18266 13.228263,1.406301 16.564453,3.535156 3.33619,2.128856 4.558,4.591693 4.56445,6.945313 0.006,2.353619 -1.26017,4.979843 -4.52539,7.27539 -3.26522,2.295548 -8.52038,4.103489 -15.814451,4.25586 a 3.3072901,3.3072901 0 0 0 -3.238281,3.375 3.3072901,3.3072901 0 0 0 3.375,3.238281 c 8.308482,-0.173562 14.852062,-2.203121 19.480472,-5.457031 4.6284,-3.25391 7.3511,-7.889005 7.33789,-12.707032 -0.0132,-4.818026 -2.81997,-9.438308 -7.6211,-12.501953 -4.80112,-3.063645 -11.56895,-4.777587 -20.279293,-4.572265 z"
       id="path2702-1" />
    <path
       style="color:#000000;fill:#503a30;stroke-linecap:round;stroke-linejoin:round;-inkscape-stroke:none"
       d="m 81.103516,31.958984 a 3.3072901,3.3072901 0 0 0 -3.308594,3.306641 3.3072901,3.3072901 0 0 0 3.308594,3.308594 h 0.185546 a 3.3072901,3.3072901 0 0 0 3.308594,-3.308594 3.3072901,3.3072901 0 0 0 -3.308594,-3.306641 z"
       id="path2704-9" />
    <path
       style="color:#000000;fill:#503a30;stroke-linecap:round;stroke-linejoin:round;-inkscape-stroke:none"
       d="m 93.464844,22.417969 a 3.3072901,3.3072901 0 0 0 -3.322266,3.292968 l -0.373047,84.376953 a 3.3072901,3.3072901 0 0 0 3.292969,3.32031 3.3072901,3.3072901 0 0 0 3.322266,-3.29101 l 0.373046,-84.376956 a 3.3072901,3.3072901 0 0 0 -3.292968,-3.322265 z"
       id="path2706-9" />
  </g>
  <g
     inkscape:label="Tero"
     inkscape:groupmode="layer"
     id="g1071"
     style="display:none;stroke-width:1.00013;stroke-dasharray:none"
     transform="translate(-0.17445559,-9.4374893)">
    <path
       style="color:#000000;fill:#503a30;stroke-width:1.00013;stroke-linecap:round;stroke-linejoin:round;stroke-dasharray:none"
       d="m 118.77344,15.964858 a 4.7624998,4.7624998 0 0 0 -3.46875,1.115234 L 81.216797,46.019545 47.154297,17.632827 a 4.7629761,4.7629761 0 0 0 -6.296875,0.173828 L 6.8125,49.531264 a 4.7624998,4.7624998 0 0 0 -0.2382813,6.732422 4.7624998,4.7624998 0 0 0 6.7304693,0.236328 L 44.28125,27.636733 78.197266,55.900405 a 4.7629761,4.7629761 0 0 0 6.130859,-0.02734 l 37.140625,-31.53125 a 4.7624998,4.7624998 0 0 0 0.54688,-6.712891 4.7624998,4.7624998 0 0 0 -3.24219,-1.664062 z"
       id="path4830" />
    <path
       style="color:#000000;fill:#503a30;stroke-width:1.00013;stroke-linecap:round;stroke-linejoin:round;stroke-dasharray:none"
       d="m 118.9668,76.579223 a 4.7624998,4.7624998 0 0 0 -3.46875,1.115234 L 81.410156,106.63196 47.347656,78.247191 a 4.7629761,4.7629761 0 0 0 -6.296875,0.173828 L 7.0058594,110.14563 A 4.7624998,4.7624998 0 0 0 6.7675781,116.8761 4.7624998,4.7624998 0 0 0 13.5,117.11438 L 44.474609,88.251098 78.390625,116.51477 a 4.7629761,4.7629761 0 0 0 6.130859,-0.0273 L 121.66211,84.956176 a 4.7624998,4.7624998 0 0 0 0.54883,-6.712891 4.7624998,4.7624998 0 0 0 -3.24414,-1.664062 z"
       id="path4827" />
  </g>
  <g
     inkscape:label="Entropia"
     inkscape:groupmode="layer"
     id="g1067"
     sodipodi:insensitive="true"
     style="display:none"
     transform="translate(-0.17445559,-9.4374893)">
    <path
       style="color:#000000;fill:#503a30;stroke-linecap:round;stroke-linejoin:round;-inkscape-stroke:none"
       d="M 58.933594,9.0820313 A 4.7624998,4.7624998 0 0 0 54.169922,13.84375 V 54.357422 H 10.103516 a 4.7624998,4.7624998 0 0 0 -4.7636723,4.761719 4.7624998,4.7624998 0 0 0 4.7636723,4.763671 h 48.830078 a 4.7629761,4.7629761 0 0 0 4.761718,-4.763671 V 13.84375 A 4.7624998,4.7624998 0 0 0 58.933594,9.0820313 Z"
       id="path4820" />
    <path
       style="color:#000000;fill:#503a30;stroke-linecap:round;stroke-linejoin:round;-inkscape-stroke:none"
       d="m 73.337891,68.576172 a 4.7629761,4.7629761 0 0 0 -4.761719,4.742187 l -0.1875,44.152341 a 4.7624998,4.7624998 0 0 0 4.742187,4.78321 4.7624998,4.7624998 0 0 0 4.783203,-4.74219 l 0.167969,-39.410158 h 42.777349 a 4.7624998,4.7624998 0 0 0 4.76171,-4.763671 4.7624998,4.7624998 0 0 0 -4.76171,-4.761719 z"
       id="path4817" />
  </g>
  <g
     inkscape:label="Natura"
     inkscape:groupmode="layer"
     id="g1063"
     sodipodi:insensitive="true"
     style="display:none"
     transform="translate(-0.17445559,-9.4374893)">
    <path
       style="color:#000000;fill:#503a30;stroke-linecap:round;stroke-linejoin:round;-inkscape-stroke:none"
       d="M 4.9707031,9.5625 A 4.7629761,4.7629761 0 0 0 0.20898438,14.324219 V 117.75977 a 4.7629761,4.7629761 0 0 0 4.76171872,4.76171 H 127.48828 A 4.7629761,4.7629761 0 0 0 132.25,117.75977 V 14.324219 A 4.7629761,4.7629761 0 0 0 127.48828,9.5625 Z m 4.7617188,9.525391 H 122.72656 V 112.99609 H 9.7324219 Z"
       id="rect2696-8" />
    <path
       style="color:#000000;fill:#503a30;stroke-linecap:round;stroke-linejoin:round;-inkscape-stroke:none"
       d="m 70.541016,20.394531 a 3.3072901,3.3072901 0 0 0 -3.75,2.796875 L 56.626953,93.138672 46.140625,52.402344 a 3.3076208,3.3076208 0 0 0 -6.404297,-0.0098 L 28.816406,94.277344 16.636719,23.666016 a 3.3072901,3.3072901 0 0 0 -3.822266,-2.697266 3.3072901,3.3072901 0 0 0 -2.697265,3.822266 l 14.781249,85.685544 a 3.3076208,3.3076208 0 0 0 6.458985,0.27149 L 42.916016,66.412109 54.326172,110.73828 a 3.3076208,3.3076208 0 0 0 6.476562,-0.34765 L 73.337891,24.142578 a 3.3072901,3.3072901 0 0 0 -2.796875,-3.748047 z"
       id="path2698-6" />
    <path
       style="color:#000000;fill:#503a30;stroke-linecap:round;stroke-linejoin:round;-inkscape-stroke:none"
       d="m 80.552734,48.236328 a 3.3072901,3.3072901 0 0 0 -3.318359,3.296875 l -0.1875,59.306637 a 3.3072901,3.3072901 0 0 0 3.296875,3.31836 3.3072901,3.3072901 0 0 0 3.318359,-3.29687 l 0.1875,-59.308596 a 3.3072901,3.3072901 0 0 0 -3.296875,-3.316406 z"
       id="path2700-3" />
    <path
       style="color:#000000;fill:#503a30;stroke-linecap:round;stroke-linejoin:round;-inkscape-stroke:none"
       d="m 93.185547,22.044922 a 3.3072901,3.3072901 0 0 0 -3.228516,3.382812 3.3072901,3.3072901 0 0 0 3.384766,3.228516 c 7.748983,-0.18266 13.228263,1.406301 16.564453,3.535156 3.33619,2.128856 4.558,4.591693 4.56445,6.945313 0.006,2.353619 -1.26017,4.979843 -4.52539,7.27539 -3.26522,2.295548 -8.52038,4.103489 -15.814451,4.25586 a 3.3072901,3.3072901 0 0 0 -3.238281,3.376953 3.3072901,3.3072901 0 0 0 3.375,3.236328 c 8.308482,-0.173562 14.852062,-2.203121 19.480472,-5.457031 4.6284,-3.25391 7.3511,-7.887052 7.33789,-12.705078 -0.0132,-4.818027 -2.81997,-9.440262 -7.6211,-12.503907 -4.80112,-3.063645 -11.56895,-4.775634 -20.279293,-4.570312 z"
       id="path2702-2" />
    <path
       style="color:#000000;fill:#503a30;stroke-linecap:round;stroke-linejoin:round;-inkscape-stroke:none"
       d="m 81.103516,31.771484 a 3.3072901,3.3072901 0 0 0 -3.308594,3.308594 3.3072901,3.3072901 0 0 0 3.308594,3.306641 h 0.185546 a 3.3072901,3.3072901 0 0 0 3.308594,-3.306641 3.3072901,3.3072901 0 0 0 -3.308594,-3.308594 z"
       id="path2704-4" />
    <path
       style="color:#000000;fill:#503a30;stroke-linecap:round;stroke-linejoin:round;-inkscape-stroke:none"
       d="m 93.464844,22.230469 a 3.3072901,3.3072901 0 0 0 -3.322266,3.292968 l -0.373047,84.376953 a 3.3072901,3.3072901 0 0 0 3.292969,3.32227 3.3072901,3.3072901 0 0 0 3.322266,-3.29297 l 0.373046,-84.376956 a 3.3072901,3.3072901 0 0 0 -3.292968,-3.322265 z"
       id="path2706-4" />
  </g>
  <g
     inkscape:label="Forta"
     inkscape:groupmode="layer"
     id="g1059"
     style="display:none"
     sodipodi:insensitive="true"
     transform="translate(-0.17445559,-9.4374893)">
    <path
       style="color:#000000;fill:#503a30;stroke-linejoin:round;-inkscape-stroke:none"
       d="m 66.203125,-46.310547 c -10.317932,0 -18.914062,8.106605 -18.914063,18.214844 0,10.108239 8.596131,18.2148436 18.914063,18.2148436 10.317932,0 18.912109,-8.1066046 18.912109,-18.2148436 0,-10.108239 -8.594177,-18.214844 -18.912109,-18.214844 z m 0,7.023438 c 6.694874,0 11.890625,5.058866 11.890625,11.191406 0,6.132539 -5.195751,11.191406 -11.890625,11.191406 -6.694874,0 -11.892578,-5.058867 -11.892578,-11.191406 0,-6.13254 5.197704,-11.191406 11.892578,-11.191406 z"
       id="path780-2"
       transform="scale(1,-1)" />
    <path
       style="color:#000000;fill:#503a30;stroke-linecap:round;stroke-linejoin:round;-inkscape-stroke:none"
       d="m 15.818359,50.177734 a 3.96875,3.96875 0 0 0 -3.96875,3.96875 3.96875,3.96875 0 0 0 3.96875,3.96875 h 97.992191 a 3.96875,3.96875 0 0 0 3.96875,-3.96875 3.96875,3.96875 0 0 0 -3.96875,-3.96875 z"
       id="path1473" />
    <path
       style="color:#000000;fill:#503a30;stroke-linecap:round;stroke-linejoin:round;-inkscape-stroke:none"
       d="m 66.042969,50.757812 a 3.96875,3.96875 0 0 0 -3.96875,3.96875 V 108.30273 L 45.085937,92.421875 a 3.96875,3.96875 0 0 0 -5.609375,0.189453 3.96875,3.96875 0 0 0 0.189454,5.609375 L 63.332031,120.3418 a 3.9691469,3.9691469 0 0 0 6.679688,-2.89844 V 54.726562 a 3.96875,3.96875 0 0 0 -3.96875,-3.96875 z"
       id="path1475" />
  </g>
  <g
     inkscape:label="Metioj"
     inkscape:groupmode="layer"
     id="g1055"
     sodipodi:insensitive="true"
     style="display:none"
     transform="translate(-0.17445559,-9.4374893)">
    <path
       style="color:#000000;fill:#503a30;stroke-linecap:round;stroke-linejoin:round;-inkscape-stroke:none"
       d="M 43.251953,10.029297 C 35.162137,9.9812418 26.837861,12.769972 20.1875,17.910156 13.537139,23.05034 8.544218,30.83342 8.234375,40.253906 c -0.2567726,7.806943 3.19232,14.581775 8.111328,19.304688 4.919008,4.722912 11.27973,7.632922 17.722656,8.232422 5.883406,0.547437 20.59923,0.797378 36.841797,0.892578 16.242567,0.0952 33.639234,-0.004 43.781254,-0.3125 0.78163,-0.02378 1.0052,0.0589 1.25195,0.113281 -0.0211,0.438613 -0.01,2.51286 -1.65625,6.636719 -7.84177,19.640607 -26.880567,32.744136 -44.925782,32.744136 a 4.7624998,4.7624998 0 0 0 -4.761719,4.76172 4.7624998,4.7624998 0 0 0 4.761719,4.76368 c 22.533683,0 44.526052,-15.58009 53.771482,-38.736333 2.23264,-5.591894 3.39634,-9.809168 1.71875,-14.080078 -0.83879,-2.135455 -2.70453,-3.939932 -4.65234,-4.785157 -1.94781,-0.845224 -3.87295,-0.997973 -5.79688,-0.939453 -9.87165,0.300268 -27.27314,0.405277 -43.435543,0.310547 -16.162404,-0.09473 -31.459426,-0.42939 -36.017578,-0.853515 -4.091705,-0.380724 -8.69656,-2.441766 -12.00586,-5.619141 -3.309299,-3.177375 -5.350191,-7.232045 -5.189453,-12.119141 0.206901,-6.290616 3.392286,-11.35893 8.259766,-15.121093 4.86748,-3.762164 11.399881,-5.926923 17.18164,-5.892579 6.452429,0.03833 10.525803,1.800743 12.796875,3.822266 2.271073,2.021523 2.983384,4.264162 2.69336,6.638672 -0.580049,4.749019 -6.033144,11.014802 -19.580078,10.316406 a 4.7624998,4.7624998 0 0 0 -5.001953,4.511719 4.7624998,4.7624998 0 0 0 4.511718,5 C 55.475203,50.712945 66.827908,41.917491 68.140625,31.169922 68.796984,25.796137 66.72841,20.18197 62.324219,16.261719 57.920027,12.341468 51.425178,10.077846 43.251953,10.029297 Z"
       id="path2562" />
  </g>
  <g
     inkscape:label="Pensante"
     inkscape:groupmode="layer"
     id="g1051"
     sodipodi:insensitive="true"
     style="display:none"
     transform="translate(-0.17445559,-9.4374893)">
    <path
       style="color:#000000;fill:#503a30;stroke-linecap:round;stroke-linejoin:round;-inkscape-stroke:none"
       d="M 4.9707031,10.123047 A 4.7629761,4.7629761 0 0 0 0.20898438,14.886719 V 118.32031 a 4.7629761,4.7629761 0 0 0 4.76171872,4.76367 H 127.48828 A 4.7629761,4.7629761 0 0 0 132.25,118.32031 V 14.886719 a 4.7629761,4.7629761 0 0 0 -4.76172,-4.763672 z m 4.7617188,9.52539 H 122.72656 V 113.55859 H 9.7324219 Z"
       id="rect2696-7" />
    <path
       style="color:#000000;fill:#503a30;stroke-linecap:round;stroke-linejoin:round;-inkscape-stroke:none"
       d="m 70.541016,20.955078 a 3.3072901,3.3072901 0 0 0 -3.75,2.796875 L 56.626953,93.699219 46.140625,52.962891 a 3.3076208,3.3076208 0 0 0 -6.404297,-0.0098 L 28.816406,94.839844 16.636719,24.226562 a 3.3072901,3.3072901 0 0 0 -3.822266,-2.697265 3.3072901,3.3072901 0 0 0 -2.697265,3.822265 l 14.781249,85.685548 a 3.3076208,3.3076208 0 0 0 6.458985,0.27344 L 42.916016,66.974609 54.326172,111.30078 a 3.3076208,3.3076208 0 0 0 6.476562,-0.34961 L 73.337891,24.703125 a 3.3072901,3.3072901 0 0 0 -2.796875,-3.748047 z"
       id="path2698-7" />
    <path
       style="color:#000000;fill:#503a30;stroke-width:1.00013;stroke-linecap:round;stroke-linejoin:round;stroke-dasharray:none"
       d="m 80.552734,48.796875 a 3.3072901,3.3072901 0 0 0 -3.318359,3.296875 l -0.1875,59.30664 a 3.3072901,3.3072901 0 0 0 3.296875,3.31836 3.3072901,3.3072901 0 0 0 3.318359,-3.29687 l 0.1875,-59.306646 a 3.3072901,3.3072901 0 0 0 -3.296875,-3.318359 z"
       id="path2700-5" />
    <path
       style="color:#000000;fill:#503a30;stroke-linecap:round;stroke-linejoin:round;-inkscape-stroke:none"
       d="m 93.185547,22.605469 a 3.3072901,3.3072901 0 0 0 -3.228516,3.384765 3.3072901,3.3072901 0 0 0 3.384766,3.228516 c 7.748983,-0.18266 13.228263,1.406301 16.564453,3.535156 3.33619,2.128856 4.558,4.58974 4.56445,6.94336 0.006,2.353619 -1.26017,4.981796 -4.52539,7.277343 -3.26522,2.295548 -8.52038,4.103489 -15.814451,4.25586 a 3.3072901,3.3072901 0 0 0 -3.238281,3.375 3.3072901,3.3072901 0 0 0 3.375,3.238281 c 8.308482,-0.173562 14.852062,-2.205074 19.480472,-5.458984 4.6284,-3.253911 7.3511,-7.887052 7.33789,-12.705079 -0.0132,-4.818026 -2.81997,-9.438308 -7.6211,-12.501953 -4.80112,-3.063645 -11.56895,-4.777587 -20.279293,-4.572265 z"
       id="path2702-0" />
    <path
       style="color:#000000;fill:#503a30;stroke-linecap:round;stroke-linejoin:round;-inkscape-stroke:none"
       d="m 81.103516,32.333984 a 3.3072901,3.3072901 0 0 0 -3.308594,3.306641 3.3072901,3.3072901 0 0 0 3.308594,3.306641 h 0.185546 a 3.3072901,3.3072901 0 0 0 3.308594,-3.306641 3.3072901,3.3072901 0 0 0 -3.308594,-3.306641 z"
       id="path2704-0" />
    <path
       style="color:#000000;fill:#503a30;stroke-linecap:round;stroke-linejoin:round;-inkscape-stroke:none"
       d="m 93.464844,22.791016 a 3.3072901,3.3072901 0 0 0 -3.322266,3.292968 l -0.373047,84.376956 a 3.3072901,3.3072901 0 0 0 3.292969,3.32226 3.3072901,3.3072901 0 0 0 3.322266,-3.29297 l 0.373046,-84.376949 a 3.3072901,3.3072901 0 0 0 -3.292968,-3.322265 z"
       id="path2706-8" />
  </g>
  <g
     inkscape:label="Sendolora"
     inkscape:groupmode="layer"
     id="g1025"
     sodipodi:insensitive="true"
     style="display:none"
     transform="translate(-0.17445559,-9.4374893)">
    <g
       id="path1077-3">
      <path
         style="color:#000000;fill:#503a30;stroke-width:2.64583;stroke-linejoin:round;-inkscape-stroke:none"
         d="m 66.55201,10.924915 a 3.6083734,3.6083734 0 0 0 -3.108854,1.764233 L 2.4091553,115.47771 a 3.6083734,3.6083734 0 0 0 3.095935,5.45134 l 0.2924886,5.2e-4 c 0.019039,-0.002 0.038372,-0.004 0.058394,-0.004 0.117861,-0.003 0.2355688,-0.011 0.3534668,-0.016 0.074375,-0.008 0.149536,-0.0116 0.2242757,-0.0176 0.013596,-0.005 0.027406,-0.0105 0.037724,-0.0145 0.00272,-0.001 0.00987,-0.004 0.022738,-0.009 0.028768,-0.0114 0.1121458,-0.0368 0.1173055,-0.0398 -0.00122,0 -0.00501,10e-4 -0.010852,0.002 0.056946,-0.0214 0.1163929,-0.0343 0.1756999,-0.047 0.060041,-0.0249 0.1210255,-0.0477 0.1813842,-0.0718 0.04913,-0.0189 0.096818,-0.0397 0.1467611,-0.0563 0.04102,-0.0162 0.082857,-0.0318 0.1229899,-0.0501 0.00667,-0.003 0.013434,-0.006 0.020154,-0.009 0.063283,-0.039 -0.055267,0.0371 0.160197,-0.0997 0.2447567,-0.15549 0.4218133,-0.26708 0.6154663,-0.45268 0.023384,-0.0246 0.046575,-0.0492 0.070797,-0.0729 0.03832,-0.0518 0.079525,-0.10148 0.1214396,-0.15038 0.012511,-0.0141 0.025048,-0.0277 0.037724,-0.0413 h 5.168e-4 c 0.04763,-0.072 0.09023,-0.14793 0.1436604,-0.23513 0.1321173,-0.2068 0.2038107,-0.32568 0.3519166,-0.52503 3.71e-4,-5e-4 0.059108,-0.0759 0.088883,-0.11369 0.02767,-0.0533 0.055392,-0.10678 0.083716,-0.15968 0.1421529,-0.26685 0.2866776,-0.53265 0.4392497,-0.79375 0.1591375,-0.27157 0.3217913,-0.5411 0.4857585,-0.80977 0.1703661,-0.27728 0.3418271,-0.55382 0.5157311,-0.82889 0.134101,-0.21095 0.269516,-0.42089 0.417029,-0.6227 0.375513,-0.64728 0.755938,-1.29333 1.080554,-1.96784 h -0.01602 L 66.533407,21.621419 120.89443,113.93775 h -5.2e-4 c 0.0872,0.14262 0.17384,0.28551 0.25994,0.42891 0.002,0.002 0.003,0.004 0.004,0.006 0,0.001 6.7e-4,1e-4 0.001,0.002 0.0374,0.0572 0.075,0.11405 0.11266,0.17105 0.11939,0.18596 0.23644,0.37358 0.34985,0.56328 0.12621,0.20655 0.248,0.41578 0.36742,0.62631 0.12153,0.21292 0.24228,0.4262 0.36276,0.63976 0.0556,0.0995 0.11099,0.19972 0.16589,0.29972 0.002,0.003 0.003,0.006 0.005,0.009 0.004,0.007 0.008,0.0137 0.0119,0.0207 0.0588,0.10697 0.12242,0.21161 0.18242,0.31781 0.0315,0.0556 0.0619,0.11195 0.0925,0.16795 0.0571,0.0869 0.11322,0.17387 0.17002,0.26097 0.10391,0.15743 0.19914,0.32028 0.29404,0.48317 0.0955,0.16217 0.1865,0.32732 0.2775,0.49196 0.0875,0.15762 0.17183,0.31655 0.25993,0.47388 0.0889,0.16093 0.17877,0.32196 0.26717,0.48317 0.0366,0.0668 0.0745,0.13285 0.11214,0.19895 0.0189,0.021 0.0381,0.0425 0.0568,0.0625 0.0645,0.071 -0.009,-0.005 0.0744,0.078 0.0464,0.0457 0.0786,0.0786 0.12248,0.12196 0.007,0.008 0.0132,0.0142 0.0202,0.0222 0.0273,0.0234 0.0548,0.047 0.0822,0.0703 0.078,0.069 0.15587,0.13834 0.23357,0.20774 0.0757,0.0697 0.15495,0.13549 0.23255,0.20309 0.11388,0.0926 0.22854,0.18445 0.34571,0.27285 0.16813,0.12789 0.35641,0.22076 0.55087,0.30076 0.29198,0.1096 0.59556,0.18199 0.90072,0.24339 l 0.39791,10e-4 a 3.6083734,3.6083734 0 0 0 3.11712,-5.43895 L 69.654146,12.700517 A 3.6083734,3.6083734 0 0 0 66.55201,10.924915 Z"
         id="path2122" />
      <path
         style="color:#000000;fill:#503a30;stroke-linejoin:round;-inkscape-stroke:none"
         d="m 66.554687,9.6015625 c -1.74074,-0.00353 -3.358403,0.9158725 -4.248046,2.4121095 a 1.3230472,1.3230472 0 0 0 -0.002,0 L 1.2714844,114.80273 c -1.91754521,3.22776 0.4760936,7.44268 4.2304687,7.44922 h 0.2929688 a 1.3230472,1.3230472 0 0 0 0.09375,-0.004 c 0.020246,-0.001 0.0572,-0.003 0.046875,-0.002 0.1294095,-0.004 0.2464891,-0.0121 0.3300781,-0.0156 a 1.3230472,1.3230472 0 0 0 0.085937,-0.006 c 0.022107,-0.002 0.084316,-0.005 0.1875,-0.0137 a 1.3230472,1.3230472 0 0 0 0.3515625,-0.0781 c 0.022933,-0.008 0.027242,-0.01 0.037109,-0.0137 l 0.021484,-0.008 c -9.43e-5,-1.7e-4 0.02382,-0.009 0.021484,-0.008 -0.00447,10e-4 0.00714,-0.004 0.00195,-0.002 0.010654,-0.003 0.022559,-0.006 0.039063,-0.0117 0.00875,-0.003 0.017941,-0.005 0.037109,-0.0117 0.00173,-6.2e-4 0.00591,-0.003 0.00781,-0.004 0.00534,-10e-4 -0.022374,0.008 -0.00391,0.004 a 1.3230472,1.3230472 0 0 0 0.2304687,-0.0723 c 0.028275,-0.0117 0.08317,-0.0319 0.1503906,-0.0586 l 0.015625,-0.006 c 0.053983,-0.0208 0.092688,-0.038 0.072266,-0.0312 a 1.3230472,1.3230472 0 0 0 0.068359,-0.0234 c 0.025059,-0.01 0.087858,-0.0336 0.1855469,-0.0781 0.00303,-0.001 0.00617,-0.001 0.011719,-0.004 a 1.3230472,1.3230472 0 0 0 0.1542968,-0.082 c 0.037142,-0.0229 -0.04173,0.0287 0.1757813,-0.10938 C 8.3600127,121.45902 8.6462237,121.28104 8.9394531,121 a 1.3230472,1.3230472 0 0 0 0.042969,-0.0449 c 0.025888,-0.0272 0.038267,-0.0402 0.037109,-0.0391 a 1.3230472,1.3230472 0 0 0 0.1386718,-0.15821 c 0.00699,-0.009 0.026397,-0.0341 0.046875,-0.0586 l 0.015625,-0.0176 -0.9667968,0.41992 a 1.3230472,1.3230472 0 0 0 1.1035156,-0.59179 c 0.083498,-0.12622 0.1296169,-0.21085 0.1679687,-0.27344 0.1248486,-0.19591 0.1706284,-0.27358 0.2851563,-0.42774 a 1.3230472,1.3230472 0 0 0 0.00195,0 c 3.71e-4,-5e-4 0.040659,-0.0538 0.064453,-0.084 a 1.3230472,1.3230472 0 0 0 0.1347663,-0.20898 c 0.02792,-0.0538 0.05343,-0.10206 0.07617,-0.14454 a 1.3230472,1.3230472 0 0 0 0.002,-0.004 c 0.138174,-0.25938 0.273696,-0.50912 0.412109,-0.7461 l 0.002,-0.002 c 0.152237,-0.25975 0.310291,-0.52033 0.470703,-0.7832 l 0.002,-0.004 c 0.166966,-0.27172 0.333726,-0.54246 0.501953,-0.80859 l 0.002,-0.004 c 0.129986,-0.20442 0.250762,-0.38955 0.367187,-0.54883 a 1.3230472,1.3230472 0 0 0 0.07617,-0.11523 c 0.372635,-0.64232 0.772291,-1.31759 1.128906,-2.05859 a 1.3230472,1.3230472 0 0 0 0.002,-0.0215 l 53.474609,-90.052734 53.224617,90.386724 0.0117,-0.0195 a 1.3230472,1.3230472 0 0 0 0,0.0371 c 0.0855,0.13984 0.16977,0.2798 0.2539,0.41993 a 1.3230472,1.3230472 0 0 0 0.0234,0.0293 1.3230472,1.3230472 0 0 0 0.008,0.0215 c 0.0399,0.0611 0.0798,0.12108 0.11719,0.17773 0.10964,0.17107 0.21664,0.34158 0.31836,0.51172 a 1.3230472,1.3230472 0 0 0 0.006,0.0117 c 0.11639,0.19048 0.23114,0.38788 0.3457,0.58984 a 1.3230472,1.3230472 0 0 0 0.002,0.002 c 0.12001,0.21024 0.23956,0.42237 0.35938,0.63476 0.0526,0.0942 0.10549,0.18914 0.1582,0.28516 a 1.3230472,1.3230472 0 0 0 0.0176,0.0312 c 0.004,0.008 0.0101,0.017 0.004,0.006 l 0.004,0.008 c 0.0733,0.13251 0.13748,0.24019 0.18164,0.31836 a 1.3230472,1.3230472 0 0 0 0.002,0 c 0.0225,0.0397 0.0491,0.0902 0.082,0.15039 a 1.3230472,1.3230472 0 0 0 0.0547,0.0918 c 0.0531,0.0808 0.10885,0.16717 0.16796,0.25781 a 1.3230472,1.3230472 0 0 0 0.004,0.006 c 0.0776,0.11751 0.16168,0.25826 0.25586,0.41992 a 1.3230472,1.3230472 0 0 0 0.002,0.006 c 0.0827,0.1404 0.16821,0.29528 0.25977,0.46094 a 1.3230472,1.3230472 0 0 0 0.002,0.002 c 0.0794,0.14304 0.16389,0.30381 0.26172,0.47852 0.0893,0.16154 0.17785,0.3197 0.26172,0.47265 0.045,0.082 0.0868,0.15322 0.12305,0.2168 a 1.3230472,1.3230472 0 0 0 0.16601,0.23047 c 0.0116,0.0129 0.0333,0.0353 0.0527,0.0566 9.8e-4,0.001 0.008,0.01 0.008,0.01 -10e-4,-0.001 0.001,0.003 0,0.002 0.002,0.002 0.004,0.003 0.006,0.006 0.003,0.003 0.005,0.004 0.008,0.008 0.004,0.004 0.008,0.01 0.008,0.01 4e-5,4e-5 0.0679,0.0721 0.0742,0.0781 0.0126,0.012 0.009,0.007 0.008,0.006 0.003,0.003 0.005,0.005 0.0176,0.0176 a 1.3230472,1.3230472 0 0 0 0.004,0.006 c 0.0383,0.0377 0.0694,0.068 0.12109,0.11914 l -0.0449,-0.0469 a 1.3230472,1.3230472 0 0 0 0.13477,0.13281 c 0.0269,0.0231 0.0555,0.0483 0.0859,0.0742 0.0694,0.0615 0.13888,0.12293 0.20899,0.18555 l -0.0156,-0.0117 c 0.109,0.10036 0.19799,0.17275 0.25977,0.22656 a 1.3230472,1.3230472 0 0 0 0.0352,0.0293 c 0.11755,0.0956 0.24306,0.1962 0.37891,0.29883 0.30129,0.22917 0.59986,0.36796 0.84961,0.4707 a 1.3230472,1.3230472 0 0 0 0.0371,0.0156 c 0.395,0.14827 0.76952,0.23514 1.10547,0.30273 a 1.3230472,1.3230472 0 0 0 0.25781,0.0254 h 0.39844 c 3.75407,0.008 6.16427,-4.19652 4.25976,-7.43164 L 70.794922,12.029297 a 1.3230472,1.3230472 0 0 0 -0.002,0 C 69.908868,10.529912 68.295314,9.6045202 66.554687,9.6015625 Z m -0.0059,2.6464845 c 0.809659,0.0014 1.553601,0.427555 1.964844,1.125 L 129.18555,116.39844 h -0.002 c 0.93109,1.58159 -0.13735,3.44916 -1.97265,3.44531 l -0.24024,-0.002 c -0.21844,-0.0469 -0.42104,-0.0958 -0.58007,-0.1543 -0.11796,-0.0506 -0.20045,-0.0948 -0.23243,-0.11914 a 1.3230472,1.3230472 0 0 0 -0.004,-0.004 c -0.0967,-0.073 -0.19777,-0.15366 -0.30664,-0.24218 -0.0717,-0.062 -0.13636,-0.11769 -0.17188,-0.15039 a 1.3230472,1.3230472 0 0 0 -0.0156,-0.0137 c -0.0787,-0.0703 -0.15812,-0.14002 -0.23828,-0.21093 a 1.3230472,1.3230472 0 0 0 -0.0195,-0.0176 c -0.009,-0.007 -0.0183,-0.0157 -0.0273,-0.0234 -6.9e-4,-5.9e-4 -0.001,-0.001 -0.002,-0.002 -0.0301,-0.0297 -0.0634,-0.0618 -0.10352,-0.10157 0.005,0.006 0.0176,0.0215 0.0176,0.0215 -0.006,-0.007 -0.009,-0.008 -0.0137,-0.0137 -0.001,-0.002 -0.003,-0.005 -0.004,-0.008 -0.001,-0.001 -0.004,-0.004 -0.004,-0.004 0,0 6e-5,-0.002 0,-0.002 -0.009,-0.0152 -0.0197,-0.0349 -0.0273,-0.0488 -0.0916,-0.167 -0.18249,-0.33072 -0.26953,-0.48828 a 1.3230472,1.3230472 0 0 0 -0.004,-0.006 c -0.078,-0.13927 -0.16086,-0.29561 -0.25586,-0.4668 l -0.002,-0.002 c -0.0894,-0.16182 -0.18413,-0.33592 -0.29101,-0.51758 l -0.002,-0.004 c -0.0941,-0.16147 -0.19874,-0.34161 -0.32617,-0.53515 l -0.004,-0.006 c -0.0442,-0.0678 -0.0923,-0.14093 -0.14062,-0.21485 -0.023,-0.0422 -0.0463,-0.084 -0.0762,-0.13672 h 0.002 c -0.0739,-0.13087 -0.13559,-0.23156 -0.17578,-0.30468 a 1.3230472,1.3230472 0 0 0 -0.004,-0.006 c -0.0107,-0.0192 -0.01,-0.0179 -0.0117,-0.0215 l -0.006,-0.0117 a 1.3230472,1.3230472 0 0 0 -0.006,-0.01 c -0.0523,-0.0952 -0.10653,-0.19114 -0.16016,-0.28711 a 1.3230472,1.3230472 0 0 0 -0.002,-0.006 c -0.12086,-0.21424 -0.24247,-0.42748 -0.36524,-0.64258 v -0.002 c -0.12218,-0.21538 -0.2493,-0.43159 -0.38281,-0.65039 l -0.002,-0.004 c -0.12127,-0.20274 -0.24435,-0.40132 -0.36914,-0.5957 a 1.3230472,1.3230472 0 0 0 -0.01,-0.0137 c -0.0366,-0.0553 -0.0717,-0.1086 -0.10547,-0.16016 -0.001,-0.002 -0.003,-0.004 -0.004,-0.006 -0.0771,-0.1282 -0.15274,-0.25558 -0.23047,-0.38281 -2.9e-4,-4.8e-4 2.9e-4,-10e-4 0,-0.002 l -0.0117,-0.0176 -54.349612,-92.298831 a 1.3230472,1.3230472 0 0 0 -2.277344,-0.0039 L 10.707031,113.04688 a 1.3230472,1.3230472 0 0 0 -0.002,0.1621 l -0.03711,-0.0605 c -0.28951,0.60156 -0.647465,1.21478 -1.0214846,1.85937 -0.1465325,0.20691 -0.2823996,0.4101 -0.4003906,0.59571 a 1.3230472,1.3230472 0 0 0 -0.00195,0.004 c -0.1780319,0.2816 -0.3511985,0.56147 -0.5234375,0.8418 a 1.3230472,1.3230472 0 0 0 -0.00391,0.004 c -0.1662575,0.27242 -0.3311977,0.54868 -0.4960938,0.83007 a 1.3230472,1.3230472 0 0 0 -0.00195,0.002 c -0.1662843,0.28456 -0.3191432,0.56438 -0.4648438,0.83789 -0.01236,0.0231 -0.021776,0.0427 -0.033203,0.0644 -0.010611,0.0137 -0.033092,0.0428 -0.033203,0.043 -0.1763735,0.2374 -0.2791174,0.40562 -0.4042969,0.60156 a 1.3230472,1.3230472 0 0 0 -0.013672,0.0215 c -0.047244,0.0771 -0.062189,0.10178 -0.082031,0.13476 -0.023958,0.0282 -0.052627,0.0654 -0.080078,0.0996 -9.172e-4,0.001 -0.00103,0.003 -0.00195,0.004 -8.675e-4,9e-4 -0.00306,0.001 -0.00391,0.002 -0.092093,0.0877 -0.1591196,0.13259 -0.4023438,0.28711 -0.088195,0.056 -0.055469,0.034 -0.060547,0.0371 -1.921e-4,1.1e-4 -0.00182,0.002 -0.00195,0.002 -0.010398,0.004 -8.767e-4,-7.3e-4 -0.017578,0.006 -0.05763,0.0217 -0.127849,0.0474 -0.1367187,0.0508 a 1.3230472,1.3230472 0 0 0 -0.015625,0.006 c -0.026756,0.0107 -0.079222,0.0327 -0.125,0.0508 -0.00295,10e-4 -0.00478,0.003 -0.00781,0.004 -0.05391,0.0133 -0.090663,0.0196 -0.1679688,0.0469 -0.0013,4.6e-4 -3.227e-4,-5.7e-4 -0.00195,0 -8.368e-4,3e-4 -0.00111,-2.9e-4 -0.00195,0 -0.00466,0.002 -0.00502,0.002 -0.00977,0.004 -4.26e-4,1.5e-4 -0.0015,-1.6e-4 -0.00195,0 -0.00152,1.2e-4 -0.00237,-1.3e-4 -0.00391,0 -0.00543,4.5e-4 -0.00802,0.001 -0.013672,0.002 -0.1275957,0.006 -0.2353099,0.0118 -0.3105469,0.0137 h 0.033203 c -0.042169,0 -0.046643,0.002 -0.076172,0.004 l -0.2714844,-0.002 C 3.672333,119.60227 2.6094048,117.73232 3.546875,116.1543 a 1.3230472,1.3230472 0 0 0 0,-0.002 L 64.580078,13.365234 c 0.413821,-0.695981 1.159037,-1.118829 1.96875,-1.117187 z M 121.89648,113.27734 c 0.006,0.005 0.0429,0.0415 0.0723,0.0684 l -0.004,0.006 c -0.0202,-0.0218 -0.0654,-0.0711 -0.0684,-0.0742 z m 0.19336,0.1543 0.0664,0.084 c 0.009,0.008 0.0391,0.0371 0.0391,0.0371 0,0 0.0165,0.0349 0.0195,0.041 l 0.0566,0.0723 0.0137,0.0352 c -0.001,-0.001 -0.006,-0.008 -0.008,-0.01 -0.008,-0.0142 -0.0304,-0.038 -0.043,-0.0586 0.004,0.007 0.009,0.018 0.0137,0.0273 -0.048,-0.052 -0.0896,-0.0981 -0.17578,-0.19141 a 1.3230472,1.3230472 0 0 0 -0.006,-0.0352 c 0.0366,0.0334 0.0527,0.0506 0.0742,0.0703 -0.0267,-0.0332 -0.0184,-0.0399 -0.0508,-0.0723 z m 0.28711,0.5 0.0684,0.16992 c -0.01,-0.0285 -0.0225,-0.0713 -0.0469,-0.14062 0.0121,0.0245 0.041,0.086 0.041,0.0859 0,-2e-5 0.004,0.0395 0.006,0.0547 l 0.002,0.008 c 0.0101,0.0813 0.0332,0.26377 0.0332,0.26367 a 1.3230472,1.3230472 0 0 0 -0.10352,-0.44141 z m -2.52148,0.66992 a 1.3230472,1.3230472 0 0 0 0.0117,0.0273 c 2.4e-4,0.002 -2.3e-4,0.004 0,0.006 -0.002,-0.005 -0.0117,-0.0333 -0.0117,-0.0332 z m 0.0684,0.19532 c 0.006,0.0125 0.0118,0.0233 0.0195,0.0391 l -0.006,-0.0234 a 1.3230472,1.3230472 0 0 0 0.0254,0.0625 c 0.0474,0.096 0.068,0.13715 0.10352,0.20898 -0.007,-0.008 -0.0228,-0.0244 -0.0273,-0.0293 -0.002,-0.004 -0.01,-0.0141 -0.0117,-0.0176 a 1.3230472,1.3230472 0 0 0 0.002,0.006 c -0.004,-0.004 -0.0293,-0.0313 -0.0293,-0.0312 1e-5,1e-5 -0.007,-0.0209 -0.008,-0.0234 -8.3e-4,-0.002 -0.0176,-0.0236 -0.0176,-0.0234 l -0.0176,-0.0781 c -0.0134,-0.0383 -0.0174,-0.0447 -0.0332,-0.0898 z M 6.1210937,119.61914 a 1.3230472,1.3230472 0 0 0 -0.125,0.24414 l -0.048828,-0.17773 c -1.887e-4,1.1e-4 0.056126,-0.0267 0.1054688,-0.0508 z m 0.4394532,2.34766 a 1.3230472,1.3230472 0 0 0 0.2597656,0.16601 c -0.04927,0.006 -0.2092633,0.0195 -0.2089844,0.0195 z"
         id="path2124" />
    </g>
  </g>
  <g
     inkscape:label="Euforia"
     inkscape:groupmode="layer"
     id="layer1"
     sodipodi:insensitive="true"
     style="display:none"
     transform="translate(-0.17445559,-9.4374893)">
    <g
       id="path7245">
      <path
         style="color:#000000;display:inline;fill:#503a30;stroke-width:2.64583;stroke-linejoin:round;-inkscape-stroke:none"
         d="m 66.363507,10.923457 a 3.6152203,3.6152203 0 0 0 -3.115346,1.767396 L 2.0985416,115.67457 a 3.6152203,3.6152203 0 0 0 3.1019996,5.46043 l 121.9331688,0.23833 a 3.6152203,3.6152203 0 0 0 3.12298,-5.449 L 69.471227,12.702292 a 3.6152203,3.6152203 0 0 0 -3.10772,-1.778835 z m -0.01907,10.716865 54.465173,92.491828 -109.258268,-0.21544 z"
         id="path1879" />
      <path
         style="color:#000000;display:inline;fill:#503a30;stroke-linejoin:round;-inkscape-stroke:none"
         d="M 66.365234,9.5996094 C 64.62258,9.596426 63.002085,10.517716 62.111328,12.015625 L 0.9609375,115 c -1.91836838,3.23211 0.477792,7.4499 4.2363281,7.45703 l 121.9335944,0.23828 c 3.75907,0.008 6.17238,-4.20181 4.26562,-7.4414 L 70.611328,12.03125 C 69.726356,10.530538 68.109305,9.6033641 66.367187,9.5996094 Z m -0.0039,2.6464846 c 0.811992,0.0014 1.558245,0.42947 1.970703,1.128906 L 129.1172,116.5957 c 0.93354,1.5861 -0.14003,3.45883 -1.98047,3.45508 L 5.203125,119.8125 c -1.8401306,-0.003 -2.9060052,-1.88049 -1.9667969,-3.46289 L 64.384766,13.367188 c 0.415156,-0.698133 1.164318,-1.122899 1.976562,-1.121094 z m -0.01367,8.072265 a 1.3230472,1.3230472 0 0 0 -1.140625,0.646485 L 10.414063,113.24219 a 1.3230472,1.3230472 0 0 0 1.134765,1.99804 l 109.257812,0.21485 a 1.3230472,1.3230472 0 0 0 1.14258,-1.99414 L 67.484375,20.96875 a 1.3230472,1.3230472 0 0 0 -1.136719,-0.650391 z m -0.0078,3.921875 52.152346,88.564456 -104.619143,-0.20703 z"
         id="path1881" />
    </g>
  </g>
</svg>
