<?xml version="1.0" encoding="UTF-8" standalone="no"?>
<!-- Created with Inkscape (http://www.inkscape.org/) -->

<svg
   width="498.06451"
   height="427.44836"
   viewBox="0 0 131.77956 113.09572"
   version="1.1"
   id="svg5"
   inkscape:export-filename="..\..\..\Mario\Drive\Proyect Komuna Lingvo\Nia-Tero-Misc\Runas\Euforia.png"
   inkscape:export-xdpi="112.24385"
   inkscape:export-ydpi="112.24385"
   inkscape:version="1.2.2 (732a01da63, 2022-12-09)"
   sodipodi:docname="dibujo.svg"
   xmlns:inkscape="http://www.inkscape.org/namespaces/inkscape"
   xmlns:sodipodi="http://sodipodi.sourceforge.net/DTD/sodipodi-0.dtd"
   xmlns="http://www.w3.org/2000/svg"
   xmlns:svg="http://www.w3.org/2000/svg">
  <sodipodi:namedview
     id="namedview7"
     pagecolor="#ffffff"
     bordercolor="#000000"
     borderopacity="0.25"
     inkscape:showpageshadow="true"
     inkscape:pageopacity="0.0"
     inkscape:pagecheckerboard="false"
     inkscape:deskcolor="#d1d1d1"
     inkscape:document-units="mm"
     showgrid="false"
     showborder="true"
     borderlayer="true"
     shape-rendering="auto"
     inkscape:lockguides="true"
     inkscape:zoom="1.3677723"
     inkscape:cx="94.313947"
     inkscape:cy="229.57038"
     inkscape:window-width="1920"
     inkscape:window-height="1017"
     inkscape:window-x="-8"
     inkscape:window-y="-8"
     inkscape:window-maximized="1"
     inkscape:current-layer="g1087">
    <sodipodi:guide
       position="0.0003577095,132.28992"
       orientation="250,0"
       inkscape:locked="true"
       id="guide357" />
    <sodipodi:guide
       position="0.0003577095,66.144083"
       orientation="0,250.00001"
       inkscape:locked="true"
       id="guide359" />
    <sodipodi:guide
       position="66.146194,66.144083"
       orientation="-250,0"
       inkscape:locked="true"
       id="guide361" />
    <sodipodi:guide
       position="66.146194,132.28992"
       orientation="0,-250.00001"
       inkscape:locked="true"
       id="guide363" />
  </sodipodi:namedview>
  <defs
     id="defs2" />
  <g
     inkscape:label="Silentu"
     inkscape:groupmode="layer"
     id="g1029"
     style="display:none"
     sodipodi:insensitive="true"
     transform="translate(-0.284389,-9.5996006)">
    <path
       style="color:#000000;display:inline;fill:#503a30;stroke:#503a30;stroke-width:2.64583;stroke-linejoin:round;stroke-dasharray:none;stroke-opacity:1"
       d="m 66.348123,121.37143 a 3.6205188,3.6205188 0 0 1 -3.119912,-1.76998 L 1.9889935,16.466794 A 3.6205188,3.6205188 0 0 1 5.0955352,10.998357 L 127.20742,10.759687 a 3.6205188,3.6205188 0 0 1 3.12755,5.456979 L 69.460397,119.58999 a 3.6205188,3.6205188 0 0 1 -3.112274,1.78144 z M 66.32903,110.63886 120.87404,18.011477 11.455649,18.227233 Z"
       id="path1027" />
  </g>
  <g
     inkscape:label="Plago"
     inkscape:groupmode="layer"
     id="g1079"
     style="display:none;stroke:#503a30;stroke-width:2.70575;stroke-dasharray:none;stroke-opacity:1"
     transform="matrix(0.97785651,0,0,0.97785651,1.2958417,-6.883372)"
     sodipodi:insensitive="true">
    <path
       id="path1077"
       style="color:#000000;display:inline;fill:#503a30;stroke:#503a30;stroke-width:2.70575;stroke-linejoin:round;stroke-dasharray:none;stroke-opacity:1"
       d="m 128.62083,8.1953392 -0.40903,0.00106 c -0.31321,0.062991 -0.62408,0.1369575 -0.92376,0.2494362 -0.19959,0.082095 -0.39343,0.1778799 -0.56599,0.3091528 -0.12026,0.090698 -0.23772,0.1850839 -0.3546,0.2800872 -0.0796,0.069403 -0.16064,0.1367025 -0.23834,0.2082158 -0.0798,0.071175 -0.15982,0.1421336 -0.23992,0.212972 -0.0281,0.023947 -0.056,0.048391 -0.084,0.0724 -0.007,0.00764 -0.0133,0.014786 -0.0206,0.022724 -0.0451,0.044519 -0.0781,0.078928 -0.12577,0.125775 -0.0856,0.085348 -0.01,0.00659 -0.0761,0.079799 -0.0192,0.020464 -0.0392,0.042483 -0.0587,0.063944 -0.0386,0.067887 -0.0777,0.135921 -0.11521,0.2045158 -0.0907,0.165458 -0.18307,0.329999 -0.27427,0.495173 -0.0904,0.161471 -0.17708,0.325468 -0.26687,0.487246 -0.0935,0.168978 -0.18685,0.338254 -0.28485,0.504686 -0.0974,0.167195 -0.19511,0.334121 -0.30175,0.495701 -0.0583,0.08942 -0.11582,0.178724 -0.1744,0.267933 -0.0315,0.05744 -0.0627,0.115243 -0.0951,0.17228 -0.0616,0.109 -0.12675,0.216284 -0.18708,0.326064 -0.004,0.0071 -0.008,0.01404 -0.0122,0.02114 -0.002,0.0031 -0.003,0.0064 -0.005,0.0095 -0.0563,0.102637 -0.11306,0.20487 -0.17016,0.307039 -0.12369,0.219177 -0.24784,0.438345 -0.37257,0.656883 -0.12256,0.216078 -0.24726,0.431157 -0.3768,0.643144 -0.1164,0.194701 -0.23629,0.386754 -0.35883,0.577614 -0.0387,0.05853 -0.0774,0.116703 -0.11573,0.175451 -4.2e-4,6.4e-4 -0.001,0.0014 -0.001,0.0021 -0.001,0.0019 -0.002,0.0039 -0.004,0.0058 -0.0884,0.147171 -0.17735,0.293823 -0.26687,0.440212 h 5.3e-4 L 66.347937,110.36322 10.216877,15.834321 h 0.01638 C 9.9000871,15.142018 9.5099505,14.479383 9.1245365,13.815051 8.9731354,13.607912 8.8341139,13.39212 8.6964787,13.175607 8.517991,12.893286 8.3418122,12.609358 8.1669553,12.324776 7.9986659,12.049018 7.8319438,11.772749 7.6686115,11.494027 7.5120174,11.226042 7.3637293,10.953008 7.2178297,10.679131 7.1887561,10.624821 7.1600918,10.570023 7.1316896,10.515307 7.1011326,10.476514 7.0406441,10.399547 7.0402649,10.399044 6.8882554,10.194419 6.815451,10.071726 6.6798509,9.8594799 6.625016,9.7699755 6.580763,9.6929519 6.5318803,9.6190277 6.5316282,9.6187568 6.5316038,9.6182418 6.5313518,9.6179708 6.5183418,9.6039813 6.5056124,9.5901456 6.4927737,9.5756935 6.4497518,9.5254606 6.4073867,9.4750519 6.3680557,9.4219098 6.3431959,9.397521 6.3191355,9.3721142 6.2951273,9.3468675 6.0963694,9.1563741 5.9148188,9.0419211 5.6636099,8.8823456 5.4424662,8.7418679 5.564206,8.8198308 5.4992569,8.7798231 c -0.00687,-0.00295 -0.013756,-0.006 -0.02061,-0.00898 C 5.4374527,8.7520512 5.3949761,8.7367023 5.3528717,8.7201064 5.3016137,8.7030464 5.252155,8.681238 5.2017303,8.6619751 5.1397834,8.6371741 5.0773343,8.6136097 5.0157101,8.5879898 4.9548412,8.5749088 4.8939494,8.5617663 4.8355031,8.5398993 c 0.00601,0.00141 0.00936,0.00202 0.010569,0.00211 -0.00529,-0.00311 -0.090964,-0.028914 -0.1204903,-0.040692 -0.013212,-0.00527 -0.020464,-0.0084 -0.023253,-0.00951 9.32e-4,2.466e-4 0.00216,5.259e-4 0.00423,0.00106 -0.010514,-0.004 -0.027549,-0.01018 -0.042806,-0.015854 C 4.5870396,8.4713218 4.5102048,8.4672809 4.4338686,8.459044 4.3128626,8.454404 4.1917794,8.445193 4.0708122,8.442133 4.0502602,8.441614 4.0306262,8.440853 4.0110952,8.438963 l -0.300169,5.285e-4 A 3.7034853,3.7034853 0 0 0 0.53325799,14.033308 L 63.176081,119.53106 a 3.7034853,3.7034853 0 0 0 3.19088,1.81105 3.7034853,3.7034853 0 0 0 3.184011,-1.82268 L 131.82017,13.77753 a 3.7034853,3.7034853 0 0 0 -3.19934,-5.5821908 z" />
  </g>
  <g
     inkscape:label="Fiera"
     inkscape:groupmode="layer"
     id="g1115"
     style="display:none"
     sodipodi:insensitive="true"
     transform="translate(-0.284389,-9.5996006)">
    <rect
       style="fill:none;fill-opacity:0;stroke:#503a30;stroke-width:9.525;stroke-linecap:round;stroke-linejoin:round;stroke-dasharray:none;stroke-opacity:1"
       id="rect2696"
       width="122.51741"
       height="103.43437"
       x="4.8771386"
       y="14.418661" />
    <path
       style="fill:none;fill-opacity:0;stroke:#503a30;stroke-width:6.61458;stroke-linecap:round;stroke-linejoin:round;stroke-dasharray:none;stroke-opacity:1"
       d="M 13.283295,24.321526 28.063301,110.00814 42.843304,53.32027 57.43622,110.00813 69.971161,23.760261"
       id="path2698"
       sodipodi:nodetypes="ccccc" />
    <path
       style="fill:none;fill-opacity:0;stroke:#503a30;stroke-width:6.61458;stroke-linecap:round;stroke-linejoin:round;stroke-dasharray:none;stroke-opacity:1"
       d="M 80.261037,110.94357 80.448126,51.636472"
       id="path2700"
       sodipodi:nodetypes="cc" />
    <path
       style="fill:none;fill-opacity:0;stroke:#503a30;stroke-width:6.61458;stroke-linecap:round;stroke-linejoin:round;stroke-dasharray:none;stroke-opacity:1"
       d="m 93.170156,25.444059 c 32.918694,-0.775964 32.140584,27.9727 0.935444,28.624566"
       id="path2702"
       sodipodi:nodetypes="cc" />
    <path
       style="fill:none;fill-opacity:0;stroke:#503a30;stroke-width:6.61458;stroke-linecap:round;stroke-linejoin:round;stroke-dasharray:none;stroke-opacity:1"
       d="m 81.009393,35.172668 h 0.187089"
       id="path2704"
       sodipodi:nodetypes="cc" />
    <path
       style="fill:none;fill-opacity:0;stroke:#503a30;stroke-width:6.61458;stroke-linecap:round;stroke-linejoin:round;stroke-dasharray:none;stroke-opacity:1"
       d="M 93.357245,25.631147 92.983069,110.00814"
       id="path2706"
       sodipodi:nodetypes="cc" />
  </g>
  <g
     inkscape:label="Stormo"
     inkscape:groupmode="layer"
     id="g1111"
     style="display:none"
     sodipodi:insensitive="true"
     transform="translate(-0.284389,-9.5996006)">
    <path
       style="display:inline;fill:none;fill-opacity:0;stroke:#503a30;stroke-width:9.525;stroke-linecap:round;stroke-linejoin:round;stroke-dasharray:none;stroke-opacity:1"
       d="m 58.154862,45.226266 c 29.634425,3.691985 37.613875,-28.85786 8.418995,-30.682541 -7.498417,-0.46865 -30.227012,3.812326 -32.74052,26.005325 -1.672305,14.765602 11.675409,21.474364 17.960512,22.076464 14.216736,1.361934 21.443799,0.344311 40.036972,-3e-6 15.125949,-0.280106 0.447732,9.238759 -9.354435,16.650894 -6.435195,4.866122 -23.302181,20.953935 -36.669373,37.043555"
       id="path2562-9"
       sodipodi:nodetypes="csssssc" />
  </g>
  <g
     inkscape:label="Neglektemo"
     inkscape:groupmode="layer"
     id="g1107"
     style="display:none"
     sodipodi:insensitive="true"
     transform="translate(-0.284389,-9.5996006)">
    <path
       style="fill:none;fill-opacity:0;stroke:#503a30;stroke-width:9.525;stroke-linecap:round;stroke-linejoin:round;stroke-dasharray:none;stroke-opacity:1"
       d="M 6.3610147,66.229388 126.09777,65.855212"
       id="path2821"
       sodipodi:nodetypes="cc" />
  </g>
  <g
     inkscape:label="Sangon"
     inkscape:groupmode="layer"
     id="g1103"
     style="display:none"
     sodipodi:insensitive="true"
     transform="translate(-0.284389,-9.5996006)">
    <path
       style="fill:none;fill-opacity:0;stroke:#503a30;stroke-width:9.525;stroke-linecap:round;stroke-linejoin:round;stroke-dasharray:none;stroke-opacity:1"
       d="M 31.400355,14.83547 102.23119,82.376204 67.111327,114.42289 31.456765,81.576946 102.00193,14.71258"
       id="path2026"
       sodipodi:nodetypes="ccccc" />
  </g>
  <g
     inkscape:label="Regulo"
     inkscape:groupmode="layer"
     id="g1099"
     style="display:none"
     sodipodi:insensitive="true"
     transform="translate(-0.284389,-9.5996006)">
    <path
       style="display:inline;fill:none;fill-opacity:0;stroke:#503a30;stroke-width:9.525;stroke-linecap:round;stroke-linejoin:round;stroke-dasharray:none;stroke-opacity:1"
       d="M 86.80914,13.844561 H 10.102786 l 10e-7,45.275457"
       id="path2823-4"
       sodipodi:nodetypes="ccc" />
    <path
       style="display:inline;fill:none;fill-opacity:0;stroke:#503a30;stroke-width:9.525;stroke-linecap:round;stroke-linejoin:round;stroke-dasharray:none;stroke-opacity:1"
       d="m 120.85928,73.338758 -0.18709,44.152922 H 44.714188"
       id="path2825-4"
       sodipodi:nodetypes="ccc" />
  </g>
  <g
     inkscape:label="Aero"
     inkscape:groupmode="layer"
     id="g1095"
     style="display:none"
     sodipodi:insensitive="true"
     transform="translate(-0.284389,-9.5996006)">
    <path
       style="display:inline;fill:none;fill-opacity:1;stroke:#503a30;stroke-width:9.525;stroke-linecap:round;stroke-linejoin:round;stroke-dasharray:none;stroke-opacity:1"
       d="m 13.347439,61.320821 c 0,0 11.517131,-24.29759 30.176808,-24.567015 17.874551,0.313562 23.462915,23.906662 41.009505,23.793249 22.632608,0.193441 33.465308,-23.79325 33.465308,-23.79325"
       id="path1554-4"
       sodipodi:nodetypes="cccc" />
    <path
       style="display:inline;fill:none;fill-opacity:1;stroke:#503a30;stroke-width:9.525;stroke-linecap:round;stroke-linejoin:round;stroke-dasharray:none;stroke-opacity:1"
       d="m 13.444154,95.076282 c 0,0 11.517131,-24.297585 30.176808,-24.56701 17.874551,0.313562 23.462915,23.90666 41.009505,23.79325 22.632613,0.19344 33.465313,-23.793251 33.465313,-23.793251"
       id="path1554-4-8"
       sodipodi:nodetypes="cccc" />
  </g>
  <g
     inkscape:label="Boreala"
     inkscape:groupmode="layer"
     id="g1091"
     style="display:none"
     sodipodi:insensitive="true"
     transform="translate(-0.284389,-9.5996006)">
    <path
       style="fill:none;fill-opacity:1;stroke:#503a30;stroke-width:9.525;stroke-linecap:round;stroke-linejoin:round;stroke-dasharray:none;stroke-opacity:1"
       d="M 66.20321,13.951916 66.750344,117.90737"
       id="path1548"
       sodipodi:nodetypes="cc" />
    <path
       style="fill:none;fill-opacity:1;stroke:#503a30;stroke-width:9.525;stroke-linecap:round;stroke-linejoin:round;stroke-dasharray:none;stroke-opacity:1"
       d="M 25.258699,28.697039 107.74748,102.52124"
       id="path1550"
       sodipodi:nodetypes="cc" />
    <path
       style="fill:none;fill-opacity:1;stroke:#503a30;stroke-width:9.525;stroke-linecap:round;stroke-linejoin:round;stroke-dasharray:none;stroke-opacity:1"
       d="M 107.37435,28.644407 24.938197,102.76731"
       id="path1552"
       sodipodi:nodetypes="cc" />
  </g>
  <g
     inkscape:label="Krono"
     inkscape:groupmode="layer"
     id="g1087"
     style="display:none"
     sodipodi:insensitive="true"
     transform="translate(-0.284389,-9.5996006)">
    <path
       style="fill:none;fill-opacity:1;stroke:#503a30;stroke-width:9.525;stroke-linecap:round;stroke-linejoin:round;stroke-dasharray:none;stroke-opacity:1"
       d="M 20.698195,14.121199 111.42206,14.314639 21.471959,117.99906 111.6155,117.80562 Z"
       id="path1794"
       sodipodi:nodetypes="ccccc" />
  </g>
  <g
     inkscape:label="Kosmo"
     inkscape:groupmode="layer"
     id="g1083"
     style="display:none"
     sodipodi:insensitive="true"
     transform="translate(-0.284389,-9.5996006)">
    <ellipse
       style="fill:none;fill-opacity:1;stroke:#503a30;stroke-width:9.65253;stroke-linejoin:round;stroke-dasharray:none;stroke-opacity:1"
       id="path780"
       cx="65.855202"
       cy="-65.761665"
       rx="47.411919"
       ry="45.260403"
       transform="scale(1,-1)" />
  </g>
  <g
     inkscape:label="Fajro"
     inkscape:groupmode="layer"
     id="g1075"
     style="display:none"
     sodipodi:insensitive="true"
     transform="translate(-0.284389,-9.5996006)">
    <rect
       style="display:inline;fill:none;fill-opacity:0;stroke:#503a30;stroke-width:952.5;stroke-linecap:round;stroke-linejoin:round;stroke-dasharray:none;stroke-opacity:1"
       id="rect2696-3"
       width="122.51741"
       height="103.43437"
       x="4.9706841"
       y="14.512203" />
    <path
       style="display:inline;fill:none;fill-opacity:0;stroke:#503a30;stroke-width:661.458;stroke-linecap:round;stroke-linejoin:round;stroke-dasharray:none;stroke-opacity:1"
       d="M 13.376841,24.415068 28.156847,110.10169 42.93685,53.413812 57.529766,110.10168 70.064707,23.853803"
       id="path2698-78"
       sodipodi:nodetypes="ccccc" />
    <path
       style="display:inline;fill:none;fill-opacity:0;stroke:#503a30;stroke-width:661.458;stroke-linecap:round;stroke-linejoin:round;stroke-dasharray:none;stroke-opacity:1"
       d="M 80.354583,111.03712 80.541672,51.730014"
       id="path2700-2"
       sodipodi:nodetypes="cc" />
    <path
       style="display:inline;fill:none;fill-opacity:0;stroke:#503a30;stroke-width:661.458;stroke-linecap:round;stroke-linejoin:round;stroke-dasharray:none;stroke-opacity:1"
       d="m 93.263702,25.537601 c 32.918698,-0.775964 32.140588,27.9727 0.935444,28.624566"
       id="path2702-1"
       sodipodi:nodetypes="cc" />
    <path
       style="display:inline;fill:none;fill-opacity:0;stroke:#503a30;stroke-width:661.458;stroke-linecap:round;stroke-linejoin:round;stroke-dasharray:none;stroke-opacity:1"
       d="m 81.102939,35.26621 h 0.187089"
       id="path2704-9"
       sodipodi:nodetypes="cc" />
    <path
       style="display:inline;fill:none;fill-opacity:0;stroke:#503a30;stroke-width:661.458;stroke-linecap:round;stroke-linejoin:round;stroke-dasharray:none;stroke-opacity:1"
       d="M 93.450791,25.724689 93.076615,110.10169"
       id="path2706-9"
       sodipodi:nodetypes="cc" />
  </g>
  <g
     inkscape:label="Tero"
     inkscape:groupmode="layer"
     id="g1071"
     style="display:none"
     sodipodi:insensitive="true"
     transform="translate(-0.284389,-9.5996006)">
    <path
       style="fill:none;fill-opacity:1;stroke:#503a30;stroke-width:9.525;stroke-linecap:round;stroke-linejoin:round;stroke-dasharray:none;stroke-opacity:1"
       d="M 10.058936,61.127379 44.104565,29.403044 81.245249,60.353613 118.38594,28.82272"
       id="path1554" />
    <path
       style="display:inline;fill:none;fill-opacity:1;stroke:#503a30;stroke-width:9.525;stroke-linecap:round;stroke-linejoin:round;stroke-dasharray:none;stroke-opacity:1"
       d="M 10.252375,103.20081 44.298005,71.476478 81.438689,102.42705 118.57937,70.896154"
       id="path1554-7" />
  </g>
  <g
     inkscape:label="Entropia"
     inkscape:groupmode="layer"
     id="g1067"
     style="display:none"
     sodipodi:insensitive="true"
     transform="translate(-0.284389,-9.5996006)">
    <path
       style="fill:none;fill-opacity:0;stroke:#503a30;stroke-width:9.525;stroke-linecap:round;stroke-linejoin:round;stroke-dasharray:none;stroke-opacity:1"
       d="m 10.102788,59.120018 h 48.830143 l -1e-6,-45.275457"
       id="path2823"
       sodipodi:nodetypes="ccc" />
    <path
       style="fill:none;fill-opacity:0;stroke:#503a30;stroke-width:9.525;stroke-linecap:round;stroke-linejoin:round;stroke-dasharray:none;stroke-opacity:1"
       d="m 73.151668,117.49168 0.18709,-44.152922 h 47.520522"
       id="path2825"
       sodipodi:nodetypes="ccc" />
  </g>
  <g
     inkscape:label="Natura"
     inkscape:groupmode="layer"
     id="g1063"
     style="display:none"
     sodipodi:insensitive="true"
     transform="translate(-0.284389,-9.5996006)">
    <rect
       style="display:inline;fill:none;fill-opacity:0;stroke:#503a30;stroke-width:9.525;stroke-linecap:round;stroke-linejoin:round;stroke-dasharray:none;stroke-opacity:1"
       id="rect2696-8"
       width="122.51741"
       height="103.43437"
       x="4.9706841"
       y="14.325114" />
    <path
       style="display:inline;fill:none;fill-opacity:0;stroke:#503a30;stroke-width:6.61458;stroke-linecap:round;stroke-linejoin:round;stroke-dasharray:none;stroke-opacity:1"
       d="M 13.376841,24.227979 28.156847,109.91459 42.93685,53.226723 57.529766,109.91458 70.064707,23.666714"
       id="path2698-6"
       sodipodi:nodetypes="ccccc" />
    <path
       style="display:inline;fill:none;fill-opacity:0;stroke:#503a30;stroke-width:6.61458;stroke-linecap:round;stroke-linejoin:round;stroke-dasharray:none;stroke-opacity:1"
       d="M 80.354583,110.85002 80.541672,51.542925"
       id="path2700-3"
       sodipodi:nodetypes="cc" />
    <path
       style="display:inline;fill:none;fill-opacity:0;stroke:#503a30;stroke-width:6.61458;stroke-linecap:round;stroke-linejoin:round;stroke-dasharray:none;stroke-opacity:1"
       d="m 93.263702,25.350512 c 32.918698,-0.775964 32.140588,27.9727 0.935444,28.624566"
       id="path2702-2"
       sodipodi:nodetypes="cc" />
    <path
       style="display:inline;fill:none;fill-opacity:0;stroke:#503a30;stroke-width:6.61458;stroke-linecap:round;stroke-linejoin:round;stroke-dasharray:none;stroke-opacity:1"
       d="m 81.102939,35.079121 h 0.187089"
       id="path2704-4"
       sodipodi:nodetypes="cc" />
    <path
       style="display:inline;fill:none;fill-opacity:0;stroke:#503a30;stroke-width:6.61458;stroke-linecap:round;stroke-linejoin:round;stroke-dasharray:none;stroke-opacity:1"
       d="m 93.450791,25.5376 -0.374176,84.37699"
       id="path2706-4"
       sodipodi:nodetypes="cc" />
  </g>
  <g
     inkscape:label="Forta"
     inkscape:groupmode="layer"
     id="g1059"
     style="display:none"
     sodipodi:insensitive="true"
     transform="translate(-0.284389,-9.5996006)">
    <ellipse
       style="display:inline;fill:none;fill-opacity:1;stroke:#503a30;stroke-width:7.02259;stroke-linejoin:round;stroke-dasharray:none;stroke-opacity:1"
       id="path780-2"
       cx="66.202316"
       cy="-28.095732"
       rx="15.402221"
       ry="14.70328"
       transform="scale(1,-1)" />
    <path
       style="fill:none;fill-opacity:1;stroke:#503a30;stroke-width:7.9375;stroke-linecap:round;stroke-linejoin:round;stroke-dasharray:none;stroke-opacity:1"
       d="M 15.818091,54.147117 H 113.8102"
       id="path1473"
       sodipodi:nodetypes="cc" />
    <path
       style="fill:none;fill-opacity:1;stroke:#503a30;stroke-width:7.9375;stroke-linecap:round;stroke-linejoin:round;stroke-dasharray:none;stroke-opacity:1"
       d="M 66.042298,54.726497 V 117.44338 L 42.375581,95.321674"
       id="path1475"
       sodipodi:nodetypes="ccc" />
  </g>
  <g
     inkscape:label="Metioj"
     inkscape:groupmode="layer"
     id="g1055"
     style="display:none"
     sodipodi:insensitive="true"
     transform="translate(-0.284389,-9.5996006)">
    <path
       style="fill:none;fill-opacity:0;stroke:#503a30;stroke-width:9.525;stroke-linecap:round;stroke-linejoin:round;stroke-dasharray:none;stroke-opacity:1"
       d="M 38.860185,45.088368 C 69.267118,46.655961 72.474856,14.965832 43.22352,14.79208 29.351931,14.70968 13.510392,24.700034 12.993648,40.411152 c -0.417511,12.694051 10.980555,21.657505 21.515197,22.63773 10.441568,0.971564 60.023944,1.170023 80.037635,0.561263 5.99167,-0.182249 8.28021,2.968392 4.16425,13.27726 -8.54361,21.398445 -29.059668,35.739975 -49.349137,35.739975"
       id="path2562"
       sodipodi:nodetypes="csssssc" />
  </g>
  <g
     inkscape:label="Pensante"
     inkscape:groupmode="layer"
     id="g1051"
     style="display:none"
     sodipodi:insensitive="true"
     transform="translate(-0.284389,-9.5996006)">
    <rect
       style="display:inline;fill:none;fill-opacity:0;stroke:#503a30;stroke-width:9.525;stroke-linecap:round;stroke-linejoin:round;stroke-dasharray:none;stroke-opacity:1"
       id="rect2696-7"
       width="122.51741"
       height="103.43437"
       x="4.9706841"
       y="14.88638" />
    <path
       style="display:inline;fill:none;fill-opacity:0;stroke:#503a30;stroke-width:6.61458;stroke-linecap:round;stroke-linejoin:round;stroke-dasharray:none;stroke-opacity:1"
       d="M 13.37684,24.789245 28.156846,110.47586 42.936849,53.787989 57.529765,110.47585 70.064706,24.22798"
       id="path2698-7"
       sodipodi:nodetypes="ccccc" />
    <path
       style="display:inline;fill:none;fill-opacity:0;stroke:#503a30;stroke-width:6.61458;stroke-linecap:round;stroke-linejoin:round;stroke-dasharray:none;stroke-opacity:1"
       d="M 80.354582,111.41129 80.541671,52.104191"
       id="path2700-5"
       sodipodi:nodetypes="cc" />
    <path
       style="display:inline;fill:none;fill-opacity:0;stroke:#503a30;stroke-width:6.61458;stroke-linecap:round;stroke-linejoin:round;stroke-dasharray:none;stroke-opacity:1"
       d="m 93.263701,25.911778 c 32.918699,-0.775964 32.140589,27.9727 0.935444,28.624566"
       id="path2702-0"
       sodipodi:nodetypes="cc" />
    <path
       style="display:inline;fill:none;fill-opacity:0;stroke:#503a30;stroke-width:6.61458;stroke-linecap:round;stroke-linejoin:round;stroke-dasharray:none;stroke-opacity:1"
       d="m 81.102938,35.640387 h 0.187089"
       id="path2704-0"
       sodipodi:nodetypes="cc" />
    <path
       style="display:inline;fill:none;fill-opacity:0;stroke:#503a30;stroke-width:6.61458;stroke-linecap:round;stroke-linejoin:round;stroke-dasharray:none;stroke-opacity:1"
       d="M 93.45079,26.098866 93.076614,110.47586"
       id="path2706-8"
       sodipodi:nodetypes="cc" />
  </g>
  <g
     inkscape:label="Sendolora"
     inkscape:groupmode="layer"
     id="g1025"
     style="display:none"
     sodipodi:insensitive="true"
     transform="translate(-0.284389,-9.5996006)">
    <path
       id="path1077-3"
       style="color:#000000;display:inline;fill:#503a30;stroke:#503a30;stroke-width:2.64583;stroke-linejoin:round;stroke-dasharray:none;stroke-opacity:1"
       d="m 66.55201,10.924915 a 3.6083734,3.6083734 0 0 0 -3.108854,1.764233 L 2.4091553,115.47771 a 3.6083734,3.6083734 0 0 0 3.095935,5.45134 l 0.2924886,5.2e-4 c 0.019039,-0.002 0.038372,-0.004 0.058394,-0.004 0.117861,-0.003 0.2355688,-0.011 0.3534668,-0.016 0.074375,-0.008 0.149536,-0.0116 0.2242757,-0.0176 0.013596,-0.005 0.027406,-0.0105 0.037724,-0.0145 0.00272,-0.001 0.00987,-0.004 0.022738,-0.009 0.028768,-0.0114 0.1121458,-0.0368 0.1173055,-0.0398 -0.00122,0 -0.00501,10e-4 -0.010852,0.002 0.056946,-0.0214 0.1163929,-0.0343 0.1756999,-0.047 0.060041,-0.0249 0.1210255,-0.0477 0.1813842,-0.0718 0.04913,-0.0189 0.096818,-0.0397 0.1467611,-0.0563 0.04102,-0.0162 0.082857,-0.0318 0.1229899,-0.0501 0.00667,-0.003 0.013434,-0.006 0.020154,-0.009 0.063283,-0.039 -0.055267,0.0371 0.160197,-0.0997 0.2447567,-0.15549 0.4218133,-0.26708 0.6154663,-0.45268 0.023384,-0.0246 0.046575,-0.0492 0.070797,-0.0729 0.03832,-0.0518 0.079525,-0.10148 0.1214396,-0.15038 0.012511,-0.0141 0.025048,-0.0277 0.037724,-0.0413 h 5.168e-4 c 0.04763,-0.072 0.09023,-0.14793 0.1436604,-0.23513 0.1321173,-0.2068 0.2038107,-0.32568 0.3519166,-0.52503 3.71e-4,-5e-4 0.059108,-0.0759 0.088883,-0.11369 0.02767,-0.0533 0.055392,-0.10678 0.083716,-0.15968 0.1421529,-0.26685 0.2866776,-0.53265 0.4392497,-0.79375 0.1591375,-0.27157 0.3217913,-0.5411 0.4857585,-0.80977 0.1703661,-0.27728 0.3418271,-0.55382 0.5157311,-0.82889 0.134101,-0.21095 0.269516,-0.42089 0.417029,-0.6227 0.375513,-0.64728 0.755938,-1.29333 1.080554,-1.96784 h -0.01602 L 66.533407,21.621419 120.89443,113.93775 h -5.2e-4 c 0.0872,0.14262 0.17384,0.28551 0.25994,0.42891 0.002,0.002 0.003,0.004 0.004,0.006 0,0.001 6.7e-4,1e-4 0.001,0.002 0.0374,0.0572 0.075,0.11405 0.11266,0.17105 0.11939,0.18596 0.23644,0.37358 0.34985,0.56328 0.12621,0.20655 0.248,0.41578 0.36742,0.62631 0.12153,0.21292 0.24228,0.4262 0.36276,0.63976 0.0556,0.0995 0.11099,0.19972 0.16589,0.29972 0.002,0.003 0.003,0.006 0.005,0.009 0.004,0.007 0.008,0.0137 0.0119,0.0207 0.0588,0.10697 0.12242,0.21161 0.18242,0.31781 0.0315,0.0556 0.0619,0.11195 0.0925,0.16795 0.0571,0.0869 0.11322,0.17387 0.17002,0.26097 0.10391,0.15743 0.19914,0.32028 0.29404,0.48317 0.0955,0.16217 0.1865,0.32732 0.2775,0.49196 0.0875,0.15762 0.17183,0.31655 0.25993,0.47388 0.0889,0.16093 0.17877,0.32196 0.26717,0.48317 0.0366,0.0668 0.0745,0.13285 0.11214,0.19895 0.0189,0.021 0.0381,0.0425 0.0568,0.0625 0.0645,0.071 -0.009,-0.005 0.0744,0.078 0.0464,0.0457 0.0786,0.0786 0.12248,0.12196 0.007,0.008 0.0132,0.0142 0.0202,0.0222 0.0273,0.0234 0.0548,0.047 0.0822,0.0703 0.078,0.069 0.15587,0.13834 0.23357,0.20774 0.0757,0.0697 0.15495,0.13549 0.23255,0.20309 0.11388,0.0926 0.22854,0.18445 0.34571,0.27285 0.16813,0.12789 0.35641,0.22076 0.55087,0.30076 0.29198,0.1096 0.59556,0.18199 0.90072,0.24339 l 0.39791,10e-4 a 3.6083734,3.6083734 0 0 0 3.11712,-5.43895 L 69.654146,12.700517 A 3.6083734,3.6083734 0 0 0 66.55201,10.924915 Z" />
  </g>
  <g
     inkscape:label="Euforia"
     inkscape:groupmode="layer"
     id="layer1"
     sodipodi:insensitive="true"
     transform="translate(-0.284389,-9.5996006)">
    <g
       id="path7245">
      <path
         style="color:#000000;display:inline;fill:#503a30;stroke-width:2.64583;stroke-linejoin:round;-inkscape-stroke:none"
         d="m 66.363507,10.923457 a 3.6152203,3.6152203 0 0 0 -3.115346,1.767396 L 2.0985416,115.67457 a 3.6152203,3.6152203 0 0 0 3.1019996,5.46043 l 121.9331688,0.23833 a 3.6152203,3.6152203 0 0 0 3.12298,-5.449 L 69.471227,12.702292 a 3.6152203,3.6152203 0 0 0 -3.10772,-1.778835 z m -0.01907,10.716865 54.465173,92.491828 -109.258268,-0.21544 z"
         id="path1879" />
      <path
         style="color:#000000;display:inline;fill:#503a30;stroke-linejoin:round;-inkscape-stroke:none"
         d="M 66.365234,9.5996094 C 64.62258,9.596426 63.002085,10.517716 62.111328,12.015625 L 0.9609375,115 c -1.91836838,3.23211 0.477792,7.4499 4.2363281,7.45703 l 121.9335944,0.23828 c 3.75907,0.008 6.17238,-4.20181 4.26562,-7.4414 L 70.611328,12.03125 C 69.726356,10.530538 68.109305,9.6033641 66.367187,9.5996094 Z m -0.0039,2.6464846 c 0.811992,0.0014 1.558245,0.42947 1.970703,1.128906 L 129.1172,116.5957 c 0.93354,1.5861 -0.14003,3.45883 -1.98047,3.45508 L 5.203125,119.8125 c -1.8401306,-0.003 -2.9060052,-1.88049 -1.9667969,-3.46289 L 64.384766,13.367188 c 0.415156,-0.698133 1.164318,-1.122899 1.976562,-1.121094 z m -0.01367,8.072265 a 1.3230472,1.3230472 0 0 0 -1.140625,0.646485 L 10.414063,113.24219 a 1.3230472,1.3230472 0 0 0 1.134765,1.99804 l 109.257812,0.21485 a 1.3230472,1.3230472 0 0 0 1.14258,-1.99414 L 67.484375,20.96875 a 1.3230472,1.3230472 0 0 0 -1.136719,-0.650391 z m -0.0078,3.921875 52.152346,88.564456 -104.619143,-0.20703 z"
         id="path1881" />
    </g>
  </g>
</svg>
