<?xml version="1.0" encoding="UTF-8" standalone="no"?>
<!-- Created with Inkscape (http://www.inkscape.org/) -->

<svg
   width="394.87207"
   height="381.83563"
   viewBox="0 0 104.47656 101.02735"
   version="1.1"
   id="svg5"
   inkscape:export-filename="..\..\..\Mario\Drive\Proyect Komuna Lingvo\Nia-Tero-Misc\Runas\Kosmo.svg"
   inkscape:export-xdpi="112.24385"
   inkscape:export-ydpi="112.24385"
   inkscape:version="1.2.2 (732a01da63, 2022-12-09)"
   sodipodi:docname="dibujo.svg"
   xmlns:inkscape="http://www.inkscape.org/namespaces/inkscape"
   xmlns:sodipodi="http://sodipodi.sourceforge.net/DTD/sodipodi-0.dtd"
   xmlns="http://www.w3.org/2000/svg"
   xmlns:svg="http://www.w3.org/2000/svg">
  <sodipodi:namedview
     id="namedview7"
     pagecolor="#ffffff"
     bordercolor="#000000"
     borderopacity="0.25"
     inkscape:showpageshadow="true"
     inkscape:pageopacity="0.0"
     inkscape:pagecheckerboard="false"
     inkscape:deskcolor="#d1d1d1"
     inkscape:document-units="mm"
     showgrid="false"
     showborder="true"
     borderlayer="true"
     shape-rendering="auto"
     inkscape:lockguides="true"
     inkscape:zoom="1"
     inkscape:cx="252"
     inkscape:cy="273"
     inkscape:window-width="1920"
     inkscape:window-height="1017"
     inkscape:window-x="-8"
     inkscape:window-y="-8"
     inkscape:window-maximized="1"
     inkscape:current-layer="g1083">
    <sodipodi:guide
       position="0.0003577095,132.28992"
       orientation="250,0"
       inkscape:locked="true"
       id="guide357" />
    <sodipodi:guide
       position="0.0003577095,66.144083"
       orientation="0,250.00001"
       inkscape:locked="true"
       id="guide359" />
    <sodipodi:guide
       position="66.146194,66.144083"
       orientation="-250,0"
       inkscape:locked="true"
       id="guide361" />
    <sodipodi:guide
       position="66.146194,132.28992"
       orientation="0,-250.00001"
       inkscape:locked="true"
       id="guide363" />
  </sodipodi:namedview>
  <defs
     id="defs2" />
  <g
     inkscape:label="Silentu"
     inkscape:groupmode="layer"
     id="g1029"
     style="display:none"
     sodipodi:insensitive="true"
     transform="translate(-13.617187,-15.675782)">
    <path
       style="color:#000000;display:inline;fill:#503a30;stroke:#503a30;stroke-width:2.64583;stroke-linejoin:round;stroke-dasharray:none;stroke-opacity:1"
       d="m 66.348123,121.37143 a 3.6205188,3.6205188 0 0 1 -3.119912,-1.76998 L 1.9889935,16.466794 A 3.6205188,3.6205188 0 0 1 5.0955352,10.998357 L 127.20742,10.759687 a 3.6205188,3.6205188 0 0 1 3.12755,5.456979 L 69.460397,119.58999 a 3.6205188,3.6205188 0 0 1 -3.112274,1.78144 z M 66.32903,110.63886 120.87404,18.011477 11.455649,18.227233 Z"
       id="path1027" />
  </g>
  <g
     inkscape:label="Plago"
     inkscape:groupmode="layer"
     id="g1079"
     style="display:none;stroke:#503a30;stroke-width:2.70575;stroke-dasharray:none;stroke-opacity:1"
     transform="matrix(0.97785651,0,0,0.97785651,-12.036957,-12.959553)"
     sodipodi:insensitive="true">
    <path
       id="path1077"
       style="color:#000000;display:inline;fill:#503a30;stroke:#503a30;stroke-width:2.70575;stroke-linejoin:round;stroke-dasharray:none;stroke-opacity:1"
       d="m 128.62083,8.1953392 -0.40903,0.00106 c -0.31321,0.062991 -0.62408,0.1369575 -0.92376,0.2494362 -0.19959,0.082095 -0.39343,0.1778799 -0.56599,0.3091528 -0.12026,0.090698 -0.23772,0.1850839 -0.3546,0.2800872 -0.0796,0.069403 -0.16064,0.1367025 -0.23834,0.2082158 -0.0798,0.071175 -0.15982,0.1421336 -0.23992,0.212972 -0.0281,0.023947 -0.056,0.048391 -0.084,0.0724 -0.007,0.00764 -0.0133,0.014786 -0.0206,0.022724 -0.0451,0.044519 -0.0781,0.078928 -0.12577,0.125775 -0.0856,0.085348 -0.01,0.00659 -0.0761,0.079799 -0.0192,0.020464 -0.0392,0.042483 -0.0587,0.063944 -0.0386,0.067887 -0.0777,0.135921 -0.11521,0.2045158 -0.0907,0.165458 -0.18307,0.329999 -0.27427,0.495173 -0.0904,0.161471 -0.17708,0.325468 -0.26687,0.487246 -0.0935,0.168978 -0.18685,0.338254 -0.28485,0.504686 -0.0974,0.167195 -0.19511,0.334121 -0.30175,0.495701 -0.0583,0.08942 -0.11582,0.178724 -0.1744,0.267933 -0.0315,0.05744 -0.0627,0.115243 -0.0951,0.17228 -0.0616,0.109 -0.12675,0.216284 -0.18708,0.326064 -0.004,0.0071 -0.008,0.01404 -0.0122,0.02114 -0.002,0.0031 -0.003,0.0064 -0.005,0.0095 -0.0563,0.102637 -0.11306,0.20487 -0.17016,0.307039 -0.12369,0.219177 -0.24784,0.438345 -0.37257,0.656883 -0.12256,0.216078 -0.24726,0.431157 -0.3768,0.643144 -0.1164,0.194701 -0.23629,0.386754 -0.35883,0.577614 -0.0387,0.05853 -0.0774,0.116703 -0.11573,0.175451 -4.2e-4,6.4e-4 -0.001,0.0014 -0.001,0.0021 -0.001,0.0019 -0.002,0.0039 -0.004,0.0058 -0.0884,0.147171 -0.17735,0.293823 -0.26687,0.440212 h 5.3e-4 L 66.347937,110.36322 10.216877,15.834321 h 0.01638 C 9.9000871,15.142018 9.5099505,14.479383 9.1245365,13.815051 8.9731354,13.607912 8.8341139,13.39212 8.6964787,13.175607 8.517991,12.893286 8.3418122,12.609358 8.1669553,12.324776 7.9986659,12.049018 7.8319438,11.772749 7.6686115,11.494027 7.5120174,11.226042 7.3637293,10.953008 7.2178297,10.679131 7.1887561,10.624821 7.1600918,10.570023 7.1316896,10.515307 7.1011326,10.476514 7.0406441,10.399547 7.0402649,10.399044 6.8882554,10.194419 6.815451,10.071726 6.6798509,9.8594799 6.625016,9.7699755 6.580763,9.6929519 6.5318803,9.6190277 6.5316282,9.6187568 6.5316038,9.6182418 6.5313518,9.6179708 6.5183418,9.6039813 6.5056124,9.5901456 6.4927737,9.5756935 6.4497518,9.5254606 6.4073867,9.4750519 6.3680557,9.4219098 6.3431959,9.397521 6.3191355,9.3721142 6.2951273,9.3468675 6.0963694,9.1563741 5.9148188,9.0419211 5.6636099,8.8823456 5.4424662,8.7418679 5.564206,8.8198308 5.4992569,8.7798231 c -0.00687,-0.00295 -0.013756,-0.006 -0.02061,-0.00898 C 5.4374527,8.7520512 5.3949761,8.7367023 5.3528717,8.7201064 5.3016137,8.7030464 5.252155,8.681238 5.2017303,8.6619751 5.1397834,8.6371741 5.0773343,8.6136097 5.0157101,8.5879898 4.9548412,8.5749088 4.8939494,8.5617663 4.8355031,8.5398993 c 0.00601,0.00141 0.00936,0.00202 0.010569,0.00211 -0.00529,-0.00311 -0.090964,-0.028914 -0.1204903,-0.040692 -0.013212,-0.00527 -0.020464,-0.0084 -0.023253,-0.00951 9.32e-4,2.466e-4 0.00216,5.259e-4 0.00423,0.00106 -0.010514,-0.004 -0.027549,-0.01018 -0.042806,-0.015854 C 4.5870396,8.4713218 4.5102048,8.4672809 4.4338686,8.459044 4.3128626,8.454404 4.1917794,8.445193 4.0708122,8.442133 4.0502602,8.441614 4.0306262,8.440853 4.0110952,8.438963 l -0.300169,5.285e-4 A 3.7034853,3.7034853 0 0 0 0.53325799,14.033308 L 63.176081,119.53106 a 3.7034853,3.7034853 0 0 0 3.19088,1.81105 3.7034853,3.7034853 0 0 0 3.184011,-1.82268 L 131.82017,13.77753 a 3.7034853,3.7034853 0 0 0 -3.19934,-5.5821908 z" />
  </g>
  <g
     inkscape:label="Fiera"
     inkscape:groupmode="layer"
     id="g1115"
     style="display:none"
     sodipodi:insensitive="true"
     transform="translate(-13.617187,-15.675782)">
    <rect
       style="fill:none;fill-opacity:0;stroke:#503a30;stroke-width:9.525;stroke-linecap:round;stroke-linejoin:round;stroke-dasharray:none;stroke-opacity:1"
       id="rect2696"
       width="122.51741"
       height="103.43437"
       x="4.8771386"
       y="14.418661" />
    <path
       style="fill:none;fill-opacity:0;stroke:#503a30;stroke-width:6.61458;stroke-linecap:round;stroke-linejoin:round;stroke-dasharray:none;stroke-opacity:1"
       d="M 13.283295,24.321526 28.063301,110.00814 42.843304,53.32027 57.43622,110.00813 69.971161,23.760261"
       id="path2698"
       sodipodi:nodetypes="ccccc" />
    <path
       style="fill:none;fill-opacity:0;stroke:#503a30;stroke-width:6.61458;stroke-linecap:round;stroke-linejoin:round;stroke-dasharray:none;stroke-opacity:1"
       d="M 80.261037,110.94357 80.448126,51.636472"
       id="path2700"
       sodipodi:nodetypes="cc" />
    <path
       style="fill:none;fill-opacity:0;stroke:#503a30;stroke-width:6.61458;stroke-linecap:round;stroke-linejoin:round;stroke-dasharray:none;stroke-opacity:1"
       d="m 93.170156,25.444059 c 32.918694,-0.775964 32.140584,27.9727 0.935444,28.624566"
       id="path2702"
       sodipodi:nodetypes="cc" />
    <path
       style="fill:none;fill-opacity:0;stroke:#503a30;stroke-width:6.61458;stroke-linecap:round;stroke-linejoin:round;stroke-dasharray:none;stroke-opacity:1"
       d="m 81.009393,35.172668 h 0.187089"
       id="path2704"
       sodipodi:nodetypes="cc" />
    <path
       style="fill:none;fill-opacity:0;stroke:#503a30;stroke-width:6.61458;stroke-linecap:round;stroke-linejoin:round;stroke-dasharray:none;stroke-opacity:1"
       d="M 93.357245,25.631147 92.983069,110.00814"
       id="path2706"
       sodipodi:nodetypes="cc" />
  </g>
  <g
     inkscape:label="Stormo"
     inkscape:groupmode="layer"
     id="g1111"
     style="display:none"
     sodipodi:insensitive="true"
     transform="translate(-13.617187,-15.675782)">
    <path
       style="display:inline;fill:none;fill-opacity:0;stroke:#503a30;stroke-width:9.525;stroke-linecap:round;stroke-linejoin:round;stroke-dasharray:none;stroke-opacity:1"
       d="m 58.154862,45.226266 c 29.634425,3.691985 37.613875,-28.85786 8.418995,-30.682541 -7.498417,-0.46865 -30.227012,3.812326 -32.74052,26.005325 -1.672305,14.765602 11.675409,21.474364 17.960512,22.076464 14.216736,1.361934 21.443799,0.344311 40.036972,-3e-6 15.125949,-0.280106 0.447732,9.238759 -9.354435,16.650894 -6.435195,4.866122 -23.302181,20.953935 -36.669373,37.043555"
       id="path2562-9"
       sodipodi:nodetypes="csssssc" />
  </g>
  <g
     inkscape:label="Neglektemo"
     inkscape:groupmode="layer"
     id="g1107"
     style="display:none"
     sodipodi:insensitive="true"
     transform="translate(-13.617187,-15.675782)">
    <path
       style="fill:none;fill-opacity:0;stroke:#503a30;stroke-width:9.525;stroke-linecap:round;stroke-linejoin:round;stroke-dasharray:none;stroke-opacity:1"
       d="M 6.3610147,66.229388 126.09777,65.855212"
       id="path2821"
       sodipodi:nodetypes="cc" />
  </g>
  <g
     inkscape:label="Sangon"
     inkscape:groupmode="layer"
     id="g1103"
     style="display:none"
     sodipodi:insensitive="true"
     transform="translate(-13.617187,-15.675782)">
    <path
       style="fill:none;fill-opacity:0;stroke:#503a30;stroke-width:9.525;stroke-linecap:round;stroke-linejoin:round;stroke-dasharray:none;stroke-opacity:1"
       d="M 31.400355,14.83547 102.23119,82.376204 67.111327,114.42289 31.456765,81.576946 102.00193,14.71258"
       id="path2026"
       sodipodi:nodetypes="ccccc" />
  </g>
  <g
     inkscape:label="Regulo"
     inkscape:groupmode="layer"
     id="g1099"
     style="display:none"
     sodipodi:insensitive="true"
     transform="translate(-13.617187,-15.675782)">
    <path
       style="display:inline;fill:none;fill-opacity:0;stroke:#503a30;stroke-width:9.525;stroke-linecap:round;stroke-linejoin:round;stroke-dasharray:none;stroke-opacity:1"
       d="M 86.80914,13.844561 H 10.102786 l 10e-7,45.275457"
       id="path2823-4"
       sodipodi:nodetypes="ccc" />
    <path
       style="display:inline;fill:none;fill-opacity:0;stroke:#503a30;stroke-width:9.525;stroke-linecap:round;stroke-linejoin:round;stroke-dasharray:none;stroke-opacity:1"
       d="m 120.85928,73.338758 -0.18709,44.152922 H 44.714188"
       id="path2825-4"
       sodipodi:nodetypes="ccc" />
  </g>
  <g
     inkscape:label="Aero"
     inkscape:groupmode="layer"
     id="g1095"
     style="display:none"
     sodipodi:insensitive="true"
     transform="translate(-13.617187,-15.675782)">
    <path
       style="display:inline;fill:none;fill-opacity:1;stroke:#503a30;stroke-width:9.525;stroke-linecap:round;stroke-linejoin:round;stroke-dasharray:none;stroke-opacity:1"
       d="m 13.347439,61.320821 c 0,0 11.517131,-24.29759 30.176808,-24.567015 17.874551,0.313562 23.462915,23.906662 41.009505,23.793249 22.632608,0.193441 33.465308,-23.79325 33.465308,-23.79325"
       id="path1554-4"
       sodipodi:nodetypes="cccc" />
    <path
       style="display:inline;fill:none;fill-opacity:1;stroke:#503a30;stroke-width:9.525;stroke-linecap:round;stroke-linejoin:round;stroke-dasharray:none;stroke-opacity:1"
       d="m 13.444154,95.076282 c 0,0 11.517131,-24.297585 30.176808,-24.56701 17.874551,0.313562 23.462915,23.90666 41.009505,23.79325 22.632613,0.19344 33.465313,-23.793251 33.465313,-23.793251"
       id="path1554-4-8"
       sodipodi:nodetypes="cccc" />
  </g>
  <g
     inkscape:label="Boreala"
     inkscape:groupmode="layer"
     id="g1091"
     style="display:none"
     sodipodi:insensitive="true"
     transform="translate(-13.617187,-15.675782)">
    <path
       style="fill:none;fill-opacity:1;stroke:#503a30;stroke-width:9.525;stroke-linecap:round;stroke-linejoin:round;stroke-dasharray:none;stroke-opacity:1"
       d="M 66.20321,13.951916 66.750344,117.90737"
       id="path1548"
       sodipodi:nodetypes="cc" />
    <path
       style="fill:none;fill-opacity:1;stroke:#503a30;stroke-width:9.525;stroke-linecap:round;stroke-linejoin:round;stroke-dasharray:none;stroke-opacity:1"
       d="M 25.258699,28.697039 107.74748,102.52124"
       id="path1550"
       sodipodi:nodetypes="cc" />
    <path
       style="fill:none;fill-opacity:1;stroke:#503a30;stroke-width:9.525;stroke-linecap:round;stroke-linejoin:round;stroke-dasharray:none;stroke-opacity:1"
       d="M 107.37435,28.644407 24.938197,102.76731"
       id="path1552"
       sodipodi:nodetypes="cc" />
  </g>
  <g
     inkscape:label="Krono"
     inkscape:groupmode="layer"
     id="g1087"
     style="display:none"
     sodipodi:insensitive="true"
     transform="translate(-13.617187,-15.675782)">
    <path
       style="fill:none;fill-opacity:1;stroke:#503a30;stroke-width:9.525;stroke-linecap:round;stroke-linejoin:round;stroke-dasharray:none;stroke-opacity:1"
       d="M 20.698195,14.121199 111.42206,14.314639 21.471959,117.99906 111.6155,117.80562 Z"
       id="path1794"
       sodipodi:nodetypes="ccccc" />
  </g>
  <g
     inkscape:label="Kosmo"
     inkscape:groupmode="layer"
     id="g1083"
     transform="translate(-13.617187,-15.675782)">
    <path
       style="color:#000000;fill:#503a30;stroke-linejoin:round;-inkscape-stroke:none"
       d="m 65.855469,-115.84766 c -28.674795,0 -52.238281,22.357042 -52.238281,50.085941 0,27.728899 23.563486,50.085938 52.238281,50.085938 28.674795,0 52.238281,-22.357039 52.238281,-50.085938 0,-27.728899 -23.563486,-50.085941 -52.238281,-50.085941 z m 0,9.65235 c 23.694911,0 42.585941,18.16928 42.585941,40.433591 0,22.264312 -18.89103,40.433594 -42.585941,40.433594 -23.694912,0 -42.585938,-18.169282 -42.585938,-40.433594 0,-22.264311 18.891026,-40.433591 42.585938,-40.433591 z"
       id="path780"
       transform="scale(1,-1)" />
    <path
       style="color:#000000;fill:#503a30;stroke-linecap:round;stroke-linejoin:round;-inkscape-stroke:none"
       d="m 96.683594,74.746094 c -11.717809,0 -21.328125,9.396496 -21.328125,20.978515 0,11.582021 9.610316,20.978521 21.328125,20.978521 11.717806,0 21.328126,-9.3965 21.328126,-20.978521 0,-11.582019 -9.61032,-20.978515 -21.328126,-20.978515 z m 0,5.583984 c 8.756686,0 15.744136,6.888732 15.744136,15.394531 0,8.505801 -6.98745,15.394531 -15.744136,15.394531 -8.756686,0 -15.744141,-6.88873 -15.744141,-15.394531 0,-8.505799 6.987455,-15.394531 15.744141,-15.394531 z"
       id="path5751" />
  </g>
  <g
     inkscape:label="Fajro"
     inkscape:groupmode="layer"
     id="g1075"
     style="display:none;stroke-width:1.00013"
     transform="translate(-13.617187,-15.675782)">
    <path
       style="color:#000000;fill:#503a30;stroke-linecap:round;stroke-linejoin:round;-inkscape-stroke:none"
       d="M 4.9707031,9.75 A 4.7629761,4.7629761 0 0 0 0.20898438,14.511719 V 117.94727 a 4.7629761,4.7629761 0 0 0 4.76171872,4.76171 H 127.48828 A 4.7629761,4.7629761 0 0 0 132.25,117.94727 V 14.511719 A 4.7629761,4.7629761 0 0 0 127.48828,9.75 Z m 4.7617188,9.525391 H 122.72656 V 113.18359 H 9.7324219 Z"
       id="rect2696-3" />
    <path
       style="color:#000000;fill:#503a30;stroke-linecap:round;stroke-linejoin:round;-inkscape-stroke:none"
       d="m 70.541016,20.580078 a 3.3072901,3.3072901 0 0 0 -3.75,2.798828 L 56.626953,93.326172 46.140625,52.589844 a 3.3076208,3.3076208 0 0 0 -6.404297,-0.0098 L 28.816406,94.464844 16.636719,23.853516 a 3.3072901,3.3072901 0 0 0 -3.822266,-2.697266 3.3072901,3.3072901 0 0 0 -2.697265,3.820312 l 14.781249,85.687498 a 3.3076208,3.3076208 0 0 0 6.458985,0.27149 L 42.916016,66.599609 54.326172,110.92578 a 3.3076208,3.3076208 0 0 0 6.476562,-0.34765 L 73.337891,24.330078 a 3.3072901,3.3072901 0 0 0 -2.796875,-3.75 z"
       id="path2698-78" />
    <path
       style="color:#000000;fill:#503a30;stroke-linecap:round;stroke-linejoin:round;-inkscape-stroke:none"
       d="m 80.552734,48.421875 a 3.3072901,3.3072901 0 0 0 -3.318359,3.296875 l -0.1875,59.30859 a 3.3072901,3.3072901 0 0 0 3.296875,3.31641 3.3072901,3.3072901 0 0 0 3.318359,-3.29687 l 0.1875,-59.306646 a 3.3072901,3.3072901 0 0 0 -3.296875,-3.318359 z"
       id="path2700-2" />
    <path
       style="color:#000000;fill:#503a30;stroke-linecap:round;stroke-linejoin:round;-inkscape-stroke:none"
       d="m 93.185547,22.230469 a 3.3072901,3.3072901 0 0 0 -3.228516,3.384765 3.3072901,3.3072901 0 0 0 3.384766,3.228516 c 7.748983,-0.18266 13.228263,1.406301 16.564453,3.535156 3.33619,2.128856 4.558,4.591693 4.56445,6.945313 0.006,2.353619 -1.26017,4.979843 -4.52539,7.27539 -3.26522,2.295548 -8.52038,4.103489 -15.814451,4.25586 a 3.3072901,3.3072901 0 0 0 -3.238281,3.375 3.3072901,3.3072901 0 0 0 3.375,3.238281 c 8.308482,-0.173562 14.852062,-2.203121 19.480472,-5.457031 4.6284,-3.25391 7.3511,-7.889005 7.33789,-12.707032 -0.0132,-4.818026 -2.81997,-9.438308 -7.6211,-12.501953 -4.80112,-3.063645 -11.56895,-4.777587 -20.279293,-4.572265 z"
       id="path2702-1" />
    <path
       style="color:#000000;fill:#503a30;stroke-linecap:round;stroke-linejoin:round;-inkscape-stroke:none"
       d="m 81.103516,31.958984 a 3.3072901,3.3072901 0 0 0 -3.308594,3.306641 3.3072901,3.3072901 0 0 0 3.308594,3.308594 h 0.185546 a 3.3072901,3.3072901 0 0 0 3.308594,-3.308594 3.3072901,3.3072901 0 0 0 -3.308594,-3.306641 z"
       id="path2704-9" />
    <path
       style="color:#000000;fill:#503a30;stroke-linecap:round;stroke-linejoin:round;-inkscape-stroke:none"
       d="m 93.464844,22.417969 a 3.3072901,3.3072901 0 0 0 -3.322266,3.292968 l -0.373047,84.376953 a 3.3072901,3.3072901 0 0 0 3.292969,3.32031 3.3072901,3.3072901 0 0 0 3.322266,-3.29101 l 0.373046,-84.376956 a 3.3072901,3.3072901 0 0 0 -3.292968,-3.322265 z"
       id="path2706-9" />
  </g>
  <g
     inkscape:label="Tero"
     inkscape:groupmode="layer"
     id="g1071"
     sodipodi:insensitive="true"
     style="display:none;stroke-width:1.00013;stroke-dasharray:none"
     transform="translate(-13.617187,-15.675782)">
    <path
       style="color:#000000;fill:#503a30;stroke-width:1.00013;stroke-linecap:round;stroke-linejoin:round;stroke-dasharray:none"
       d="m 118.77344,24.076172 a 4.7624998,4.7624998 0 0 0 -3.46875,1.115234 L 81.216797,54.130859 47.154297,25.744141 a 4.7629761,4.7629761 0 0 0 -6.296875,0.173828 L 6.8125,57.642578 A 4.7624998,4.7624998 0 0 0 6.5742187,64.375 4.7624998,4.7624998 0 0 0 13.304688,64.611328 L 44.28125,35.748047 78.197266,64.011719 a 4.7629761,4.7629761 0 0 0 6.130859,-0.02734 l 37.140625,-31.53125 a 4.7624998,4.7624998 0 0 0 0.54688,-6.712891 4.7624998,4.7624998 0 0 0 -3.24219,-1.664062 z"
       id="path4830" />
    <path
       style="color:#000000;fill:#503a30;stroke-width:1.00013;stroke-linecap:round;stroke-linejoin:round;stroke-dasharray:none"
       d="m 118.9668,66.150391 a 4.7624998,4.7624998 0 0 0 -3.46875,1.115234 l -34.087894,28.9375 -34.0625,-28.384766 a 4.7629761,4.7629761 0 0 0 -6.296875,0.173828 L 7.0058594,99.716797 A 4.7624998,4.7624998 0 0 0 6.7675781,106.44727 4.7624998,4.7624998 0 0 0 13.5,106.68555 L 44.474609,77.822266 78.390625,106.08594 a 4.7629761,4.7629761 0 0 0 6.130859,-0.0273 L 121.66211,74.527344 a 4.7624998,4.7624998 0 0 0 0.54883,-6.712891 4.7624998,4.7624998 0 0 0 -3.24414,-1.664062 z"
       id="path4827" />
  </g>
  <g
     inkscape:label="Entropia"
     inkscape:groupmode="layer"
     id="g1067"
     sodipodi:insensitive="true"
     style="display:none"
     transform="translate(-13.617187,-15.675782)">
    <path
       style="color:#000000;fill:#503a30;stroke-linecap:round;stroke-linejoin:round;-inkscape-stroke:none"
       d="M 58.933594,9.0820313 A 4.7624998,4.7624998 0 0 0 54.169922,13.84375 V 54.357422 H 10.103516 a 4.7624998,4.7624998 0 0 0 -4.7636723,4.761719 4.7624998,4.7624998 0 0 0 4.7636723,4.763671 h 48.830078 a 4.7629761,4.7629761 0 0 0 4.761718,-4.763671 V 13.84375 A 4.7624998,4.7624998 0 0 0 58.933594,9.0820313 Z"
       id="path4820" />
    <path
       style="color:#000000;fill:#503a30;stroke-linecap:round;stroke-linejoin:round;-inkscape-stroke:none"
       d="m 73.337891,68.576172 a 4.7629761,4.7629761 0 0 0 -4.761719,4.742187 l -0.1875,44.152341 a 4.7624998,4.7624998 0 0 0 4.742187,4.78321 4.7624998,4.7624998 0 0 0 4.783203,-4.74219 l 0.167969,-39.410158 h 42.777349 a 4.7624998,4.7624998 0 0 0 4.76171,-4.763671 4.7624998,4.7624998 0 0 0 -4.76171,-4.761719 z"
       id="path4817" />
  </g>
  <g
     inkscape:label="Natura"
     inkscape:groupmode="layer"
     id="g1063"
     sodipodi:insensitive="true"
     style="display:none"
     transform="translate(-13.617187,-15.675782)">
    <path
       style="color:#000000;fill:#503a30;stroke-linecap:round;stroke-linejoin:round;-inkscape-stroke:none"
       d="M 4.9707031,9.5625 A 4.7629761,4.7629761 0 0 0 0.20898438,14.324219 V 117.75977 a 4.7629761,4.7629761 0 0 0 4.76171872,4.76171 H 127.48828 A 4.7629761,4.7629761 0 0 0 132.25,117.75977 V 14.324219 A 4.7629761,4.7629761 0 0 0 127.48828,9.5625 Z m 4.7617188,9.525391 H 122.72656 V 112.99609 H 9.7324219 Z"
       id="rect2696-8" />
    <path
       style="color:#000000;fill:#503a30;stroke-linecap:round;stroke-linejoin:round;-inkscape-stroke:none"
       d="m 70.541016,20.394531 a 3.3072901,3.3072901 0 0 0 -3.75,2.796875 L 56.626953,93.138672 46.140625,52.402344 a 3.3076208,3.3076208 0 0 0 -6.404297,-0.0098 L 28.816406,94.277344 16.636719,23.666016 a 3.3072901,3.3072901 0 0 0 -3.822266,-2.697266 3.3072901,3.3072901 0 0 0 -2.697265,3.822266 l 14.781249,85.685544 a 3.3076208,3.3076208 0 0 0 6.458985,0.27149 L 42.916016,66.412109 54.326172,110.73828 a 3.3076208,3.3076208 0 0 0 6.476562,-0.34765 L 73.337891,24.142578 a 3.3072901,3.3072901 0 0 0 -2.796875,-3.748047 z"
       id="path2698-6" />
    <path
       style="color:#000000;fill:#503a30;stroke-linecap:round;stroke-linejoin:round;-inkscape-stroke:none"
       d="m 80.552734,48.236328 a 3.3072901,3.3072901 0 0 0 -3.318359,3.296875 l -0.1875,59.306637 a 3.3072901,3.3072901 0 0 0 3.296875,3.31836 3.3072901,3.3072901 0 0 0 3.318359,-3.29687 l 0.1875,-59.308596 a 3.3072901,3.3072901 0 0 0 -3.296875,-3.316406 z"
       id="path2700-3" />
    <path
       style="color:#000000;fill:#503a30;stroke-linecap:round;stroke-linejoin:round;-inkscape-stroke:none"
       d="m 93.185547,22.044922 a 3.3072901,3.3072901 0 0 0 -3.228516,3.382812 3.3072901,3.3072901 0 0 0 3.384766,3.228516 c 7.748983,-0.18266 13.228263,1.406301 16.564453,3.535156 3.33619,2.128856 4.558,4.591693 4.56445,6.945313 0.006,2.353619 -1.26017,4.979843 -4.52539,7.27539 -3.26522,2.295548 -8.52038,4.103489 -15.814451,4.25586 a 3.3072901,3.3072901 0 0 0 -3.238281,3.376953 3.3072901,3.3072901 0 0 0 3.375,3.236328 c 8.308482,-0.173562 14.852062,-2.203121 19.480472,-5.457031 4.6284,-3.25391 7.3511,-7.887052 7.33789,-12.705078 -0.0132,-4.818027 -2.81997,-9.440262 -7.6211,-12.503907 -4.80112,-3.063645 -11.56895,-4.775634 -20.279293,-4.570312 z"
       id="path2702-2" />
    <path
       style="color:#000000;fill:#503a30;stroke-linecap:round;stroke-linejoin:round;-inkscape-stroke:none"
       d="m 81.103516,31.771484 a 3.3072901,3.3072901 0 0 0 -3.308594,3.308594 3.3072901,3.3072901 0 0 0 3.308594,3.306641 h 0.185546 a 3.3072901,3.3072901 0 0 0 3.308594,-3.306641 3.3072901,3.3072901 0 0 0 -3.308594,-3.308594 z"
       id="path2704-4" />
    <path
       style="color:#000000;fill:#503a30;stroke-linecap:round;stroke-linejoin:round;-inkscape-stroke:none"
       d="m 93.464844,22.230469 a 3.3072901,3.3072901 0 0 0 -3.322266,3.292968 l -0.373047,84.376953 a 3.3072901,3.3072901 0 0 0 3.292969,3.32227 3.3072901,3.3072901 0 0 0 3.322266,-3.29297 l 0.373046,-84.376956 a 3.3072901,3.3072901 0 0 0 -3.292968,-3.322265 z"
       id="path2706-4" />
  </g>
  <g
     inkscape:label="Forta"
     inkscape:groupmode="layer"
     id="g1059"
     style="display:none"
     sodipodi:insensitive="true"
     transform="translate(-13.617187,-15.675782)">
    <path
       style="color:#000000;fill:#503a30;stroke-linejoin:round;-inkscape-stroke:none"
       d="m 66.203125,-46.310547 c -10.317932,0 -18.914062,8.106605 -18.914063,18.214844 0,10.108239 8.596131,18.2148436 18.914063,18.2148436 10.317932,0 18.912109,-8.1066046 18.912109,-18.2148436 0,-10.108239 -8.594177,-18.214844 -18.912109,-18.214844 z m 0,7.023438 c 6.694874,0 11.890625,5.058866 11.890625,11.191406 0,6.132539 -5.195751,11.191406 -11.890625,11.191406 -6.694874,0 -11.892578,-5.058867 -11.892578,-11.191406 0,-6.13254 5.197704,-11.191406 11.892578,-11.191406 z"
       id="path780-2"
       transform="scale(1,-1)" />
    <path
       style="color:#000000;fill:#503a30;stroke-linecap:round;stroke-linejoin:round;-inkscape-stroke:none"
       d="m 15.818359,50.177734 a 3.96875,3.96875 0 0 0 -3.96875,3.96875 3.96875,3.96875 0 0 0 3.96875,3.96875 h 97.992191 a 3.96875,3.96875 0 0 0 3.96875,-3.96875 3.96875,3.96875 0 0 0 -3.96875,-3.96875 z"
       id="path1473" />
    <path
       style="color:#000000;fill:#503a30;stroke-linecap:round;stroke-linejoin:round;-inkscape-stroke:none"
       d="m 66.042969,50.757812 a 3.96875,3.96875 0 0 0 -3.96875,3.96875 V 108.30273 L 45.085937,92.421875 a 3.96875,3.96875 0 0 0 -5.609375,0.189453 3.96875,3.96875 0 0 0 0.189454,5.609375 L 63.332031,120.3418 a 3.9691469,3.9691469 0 0 0 6.679688,-2.89844 V 54.726562 a 3.96875,3.96875 0 0 0 -3.96875,-3.96875 z"
       id="path1475" />
  </g>
  <g
     inkscape:label="Metioj"
     inkscape:groupmode="layer"
     id="g1055"
     sodipodi:insensitive="true"
     style="display:none"
     transform="translate(-13.617187,-15.675782)">
    <path
       style="color:#000000;fill:#503a30;stroke-linecap:round;stroke-linejoin:round;-inkscape-stroke:none"
       d="M 43.251953,10.029297 C 35.162137,9.9812418 26.837861,12.769972 20.1875,17.910156 13.537139,23.05034 8.544218,30.83342 8.234375,40.253906 c -0.2567726,7.806943 3.19232,14.581775 8.111328,19.304688 4.919008,4.722912 11.27973,7.632922 17.722656,8.232422 5.883406,0.547437 20.59923,0.797378 36.841797,0.892578 16.242567,0.0952 33.639234,-0.004 43.781254,-0.3125 0.78163,-0.02378 1.0052,0.0589 1.25195,0.113281 -0.0211,0.438613 -0.01,2.51286 -1.65625,6.636719 -7.84177,19.640607 -26.880567,32.744136 -44.925782,32.744136 a 4.7624998,4.7624998 0 0 0 -4.761719,4.76172 4.7624998,4.7624998 0 0 0 4.761719,4.76368 c 22.533683,0 44.526052,-15.58009 53.771482,-38.736333 2.23264,-5.591894 3.39634,-9.809168 1.71875,-14.080078 -0.83879,-2.135455 -2.70453,-3.939932 -4.65234,-4.785157 -1.94781,-0.845224 -3.87295,-0.997973 -5.79688,-0.939453 -9.87165,0.300268 -27.27314,0.405277 -43.435543,0.310547 -16.162404,-0.09473 -31.459426,-0.42939 -36.017578,-0.853515 -4.091705,-0.380724 -8.69656,-2.441766 -12.00586,-5.619141 -3.309299,-3.177375 -5.350191,-7.232045 -5.189453,-12.119141 0.206901,-6.290616 3.392286,-11.35893 8.259766,-15.121093 4.86748,-3.762164 11.399881,-5.926923 17.18164,-5.892579 6.452429,0.03833 10.525803,1.800743 12.796875,3.822266 2.271073,2.021523 2.983384,4.264162 2.69336,6.638672 -0.580049,4.749019 -6.033144,11.014802 -19.580078,10.316406 a 4.7624998,4.7624998 0 0 0 -5.001953,4.511719 4.7624998,4.7624998 0 0 0 4.511718,5 C 55.475203,50.712945 66.827908,41.917491 68.140625,31.169922 68.796984,25.796137 66.72841,20.18197 62.324219,16.261719 57.920027,12.341468 51.425178,10.077846 43.251953,10.029297 Z"
       id="path2562" />
  </g>
  <g
     inkscape:label="Pensante"
     inkscape:groupmode="layer"
     id="g1051"
     sodipodi:insensitive="true"
     style="display:none"
     transform="translate(-13.617187,-15.675782)">
    <path
       style="color:#000000;fill:#503a30;stroke-linecap:round;stroke-linejoin:round;-inkscape-stroke:none"
       d="M 4.9707031,10.123047 A 4.7629761,4.7629761 0 0 0 0.20898438,14.886719 V 118.32031 a 4.7629761,4.7629761 0 0 0 4.76171872,4.76367 H 127.48828 A 4.7629761,4.7629761 0 0 0 132.25,118.32031 V 14.886719 a 4.7629761,4.7629761 0 0 0 -4.76172,-4.763672 z m 4.7617188,9.52539 H 122.72656 V 113.55859 H 9.7324219 Z"
       id="rect2696-7" />
    <path
       style="color:#000000;fill:#503a30;stroke-linecap:round;stroke-linejoin:round;-inkscape-stroke:none"
       d="m 70.541016,20.955078 a 3.3072901,3.3072901 0 0 0 -3.75,2.796875 L 56.626953,93.699219 46.140625,52.962891 a 3.3076208,3.3076208 0 0 0 -6.404297,-0.0098 L 28.816406,94.839844 16.636719,24.226562 a 3.3072901,3.3072901 0 0 0 -3.822266,-2.697265 3.3072901,3.3072901 0 0 0 -2.697265,3.822265 l 14.781249,85.685548 a 3.3076208,3.3076208 0 0 0 6.458985,0.27344 L 42.916016,66.974609 54.326172,111.30078 a 3.3076208,3.3076208 0 0 0 6.476562,-0.34961 L 73.337891,24.703125 a 3.3072901,3.3072901 0 0 0 -2.796875,-3.748047 z"
       id="path2698-7" />
    <path
       style="color:#000000;fill:#503a30;stroke-width:1.00013;stroke-linecap:round;stroke-linejoin:round;stroke-dasharray:none"
       d="m 80.552734,48.796875 a 3.3072901,3.3072901 0 0 0 -3.318359,3.296875 l -0.1875,59.30664 a 3.3072901,3.3072901 0 0 0 3.296875,3.31836 3.3072901,3.3072901 0 0 0 3.318359,-3.29687 l 0.1875,-59.306646 a 3.3072901,3.3072901 0 0 0 -3.296875,-3.318359 z"
       id="path2700-5" />
    <path
       style="color:#000000;fill:#503a30;stroke-linecap:round;stroke-linejoin:round;-inkscape-stroke:none"
       d="m 93.185547,22.605469 a 3.3072901,3.3072901 0 0 0 -3.228516,3.384765 3.3072901,3.3072901 0 0 0 3.384766,3.228516 c 7.748983,-0.18266 13.228263,1.406301 16.564453,3.535156 3.33619,2.128856 4.558,4.58974 4.56445,6.94336 0.006,2.353619 -1.26017,4.981796 -4.52539,7.277343 -3.26522,2.295548 -8.52038,4.103489 -15.814451,4.25586 a 3.3072901,3.3072901 0 0 0 -3.238281,3.375 3.3072901,3.3072901 0 0 0 3.375,3.238281 c 8.308482,-0.173562 14.852062,-2.205074 19.480472,-5.458984 4.6284,-3.253911 7.3511,-7.887052 7.33789,-12.705079 -0.0132,-4.818026 -2.81997,-9.438308 -7.6211,-12.501953 -4.80112,-3.063645 -11.56895,-4.777587 -20.279293,-4.572265 z"
       id="path2702-0" />
    <path
       style="color:#000000;fill:#503a30;stroke-linecap:round;stroke-linejoin:round;-inkscape-stroke:none"
       d="m 81.103516,32.333984 a 3.3072901,3.3072901 0 0 0 -3.308594,3.306641 3.3072901,3.3072901 0 0 0 3.308594,3.306641 h 0.185546 a 3.3072901,3.3072901 0 0 0 3.308594,-3.306641 3.3072901,3.3072901 0 0 0 -3.308594,-3.306641 z"
       id="path2704-0" />
    <path
       style="color:#000000;fill:#503a30;stroke-linecap:round;stroke-linejoin:round;-inkscape-stroke:none"
       d="m 93.464844,22.791016 a 3.3072901,3.3072901 0 0 0 -3.322266,3.292968 l -0.373047,84.376956 a 3.3072901,3.3072901 0 0 0 3.292969,3.32226 3.3072901,3.3072901 0 0 0 3.322266,-3.29297 l 0.373046,-84.376949 a 3.3072901,3.3072901 0 0 0 -3.292968,-3.322265 z"
       id="path2706-8" />
  </g>
  <g
     inkscape:label="Sendolora"
     inkscape:groupmode="layer"
     id="g1025"
     sodipodi:insensitive="true"
     style="display:none"
     transform="translate(-13.617187,-15.675782)">
    <g
       id="path1077-3">
      <path
         style="color:#000000;fill:#503a30;stroke-width:2.64583;stroke-linejoin:round;-inkscape-stroke:none"
         d="m 66.55201,10.924915 a 3.6083734,3.6083734 0 0 0 -3.108854,1.764233 L 2.4091553,115.47771 a 3.6083734,3.6083734 0 0 0 3.095935,5.45134 l 0.2924886,5.2e-4 c 0.019039,-0.002 0.038372,-0.004 0.058394,-0.004 0.117861,-0.003 0.2355688,-0.011 0.3534668,-0.016 0.074375,-0.008 0.149536,-0.0116 0.2242757,-0.0176 0.013596,-0.005 0.027406,-0.0105 0.037724,-0.0145 0.00272,-0.001 0.00987,-0.004 0.022738,-0.009 0.028768,-0.0114 0.1121458,-0.0368 0.1173055,-0.0398 -0.00122,0 -0.00501,10e-4 -0.010852,0.002 0.056946,-0.0214 0.1163929,-0.0343 0.1756999,-0.047 0.060041,-0.0249 0.1210255,-0.0477 0.1813842,-0.0718 0.04913,-0.0189 0.096818,-0.0397 0.1467611,-0.0563 0.04102,-0.0162 0.082857,-0.0318 0.1229899,-0.0501 0.00667,-0.003 0.013434,-0.006 0.020154,-0.009 0.063283,-0.039 -0.055267,0.0371 0.160197,-0.0997 0.2447567,-0.15549 0.4218133,-0.26708 0.6154663,-0.45268 0.023384,-0.0246 0.046575,-0.0492 0.070797,-0.0729 0.03832,-0.0518 0.079525,-0.10148 0.1214396,-0.15038 0.012511,-0.0141 0.025048,-0.0277 0.037724,-0.0413 h 5.168e-4 c 0.04763,-0.072 0.09023,-0.14793 0.1436604,-0.23513 0.1321173,-0.2068 0.2038107,-0.32568 0.3519166,-0.52503 3.71e-4,-5e-4 0.059108,-0.0759 0.088883,-0.11369 0.02767,-0.0533 0.055392,-0.10678 0.083716,-0.15968 0.1421529,-0.26685 0.2866776,-0.53265 0.4392497,-0.79375 0.1591375,-0.27157 0.3217913,-0.5411 0.4857585,-0.80977 0.1703661,-0.27728 0.3418271,-0.55382 0.5157311,-0.82889 0.134101,-0.21095 0.269516,-0.42089 0.417029,-0.6227 0.375513,-0.64728 0.755938,-1.29333 1.080554,-1.96784 h -0.01602 L 66.533407,21.621419 120.89443,113.93775 h -5.2e-4 c 0.0872,0.14262 0.17384,0.28551 0.25994,0.42891 0.002,0.002 0.003,0.004 0.004,0.006 0,0.001 6.7e-4,1e-4 0.001,0.002 0.0374,0.0572 0.075,0.11405 0.11266,0.17105 0.11939,0.18596 0.23644,0.37358 0.34985,0.56328 0.12621,0.20655 0.248,0.41578 0.36742,0.62631 0.12153,0.21292 0.24228,0.4262 0.36276,0.63976 0.0556,0.0995 0.11099,0.19972 0.16589,0.29972 0.002,0.003 0.003,0.006 0.005,0.009 0.004,0.007 0.008,0.0137 0.0119,0.0207 0.0588,0.10697 0.12242,0.21161 0.18242,0.31781 0.0315,0.0556 0.0619,0.11195 0.0925,0.16795 0.0571,0.0869 0.11322,0.17387 0.17002,0.26097 0.10391,0.15743 0.19914,0.32028 0.29404,0.48317 0.0955,0.16217 0.1865,0.32732 0.2775,0.49196 0.0875,0.15762 0.17183,0.31655 0.25993,0.47388 0.0889,0.16093 0.17877,0.32196 0.26717,0.48317 0.0366,0.0668 0.0745,0.13285 0.11214,0.19895 0.0189,0.021 0.0381,0.0425 0.0568,0.0625 0.0645,0.071 -0.009,-0.005 0.0744,0.078 0.0464,0.0457 0.0786,0.0786 0.12248,0.12196 0.007,0.008 0.0132,0.0142 0.0202,0.0222 0.0273,0.0234 0.0548,0.047 0.0822,0.0703 0.078,0.069 0.15587,0.13834 0.23357,0.20774 0.0757,0.0697 0.15495,0.13549 0.23255,0.20309 0.11388,0.0926 0.22854,0.18445 0.34571,0.27285 0.16813,0.12789 0.35641,0.22076 0.55087,0.30076 0.29198,0.1096 0.59556,0.18199 0.90072,0.24339 l 0.39791,10e-4 a 3.6083734,3.6083734 0 0 0 3.11712,-5.43895 L 69.654146,12.700517 A 3.6083734,3.6083734 0 0 0 66.55201,10.924915 Z"
         id="path2122" />
      <path
         style="color:#000000;fill:#503a30;stroke-linejoin:round;-inkscape-stroke:none"
         d="m 66.554687,9.6015625 c -1.74074,-0.00353 -3.358403,0.9158725 -4.248046,2.4121095 a 1.3230472,1.3230472 0 0 0 -0.002,0 L 1.2714844,114.80273 c -1.91754521,3.22776 0.4760936,7.44268 4.2304687,7.44922 h 0.2929688 a 1.3230472,1.3230472 0 0 0 0.09375,-0.004 c 0.020246,-0.001 0.0572,-0.003 0.046875,-0.002 0.1294095,-0.004 0.2464891,-0.0121 0.3300781,-0.0156 a 1.3230472,1.3230472 0 0 0 0.085937,-0.006 c 0.022107,-0.002 0.084316,-0.005 0.1875,-0.0137 a 1.3230472,1.3230472 0 0 0 0.3515625,-0.0781 c 0.022933,-0.008 0.027242,-0.01 0.037109,-0.0137 l 0.021484,-0.008 c -9.43e-5,-1.7e-4 0.02382,-0.009 0.021484,-0.008 -0.00447,10e-4 0.00714,-0.004 0.00195,-0.002 0.010654,-0.003 0.022559,-0.006 0.039063,-0.0117 0.00875,-0.003 0.017941,-0.005 0.037109,-0.0117 0.00173,-6.2e-4 0.00591,-0.003 0.00781,-0.004 0.00534,-10e-4 -0.022374,0.008 -0.00391,0.004 a 1.3230472,1.3230472 0 0 0 0.2304687,-0.0723 c 0.028275,-0.0117 0.08317,-0.0319 0.1503906,-0.0586 l 0.015625,-0.006 c 0.053983,-0.0208 0.092688,-0.038 0.072266,-0.0312 a 1.3230472,1.3230472 0 0 0 0.068359,-0.0234 c 0.025059,-0.01 0.087858,-0.0336 0.1855469,-0.0781 0.00303,-0.001 0.00617,-0.001 0.011719,-0.004 a 1.3230472,1.3230472 0 0 0 0.1542968,-0.082 c 0.037142,-0.0229 -0.04173,0.0287 0.1757813,-0.10938 C 8.3600127,121.45902 8.6462237,121.28104 8.9394531,121 a 1.3230472,1.3230472 0 0 0 0.042969,-0.0449 c 0.025888,-0.0272 0.038267,-0.0402 0.037109,-0.0391 a 1.3230472,1.3230472 0 0 0 0.1386718,-0.15821 c 0.00699,-0.009 0.026397,-0.0341 0.046875,-0.0586 l 0.015625,-0.0176 -0.9667968,0.41992 a 1.3230472,1.3230472 0 0 0 1.1035156,-0.59179 c 0.083498,-0.12622 0.1296169,-0.21085 0.1679687,-0.27344 0.1248486,-0.19591 0.1706284,-0.27358 0.2851563,-0.42774 a 1.3230472,1.3230472 0 0 0 0.00195,0 c 3.71e-4,-5e-4 0.040659,-0.0538 0.064453,-0.084 a 1.3230472,1.3230472 0 0 0 0.1347663,-0.20898 c 0.02792,-0.0538 0.05343,-0.10206 0.07617,-0.14454 a 1.3230472,1.3230472 0 0 0 0.002,-0.004 c 0.138174,-0.25938 0.273696,-0.50912 0.412109,-0.7461 l 0.002,-0.002 c 0.152237,-0.25975 0.310291,-0.52033 0.470703,-0.7832 l 0.002,-0.004 c 0.166966,-0.27172 0.333726,-0.54246 0.501953,-0.80859 l 0.002,-0.004 c 0.129986,-0.20442 0.250762,-0.38955 0.367187,-0.54883 a 1.3230472,1.3230472 0 0 0 0.07617,-0.11523 c 0.372635,-0.64232 0.772291,-1.31759 1.128906,-2.05859 a 1.3230472,1.3230472 0 0 0 0.002,-0.0215 l 53.474609,-90.052734 53.224617,90.386724 0.0117,-0.0195 a 1.3230472,1.3230472 0 0 0 0,0.0371 c 0.0855,0.13984 0.16977,0.2798 0.2539,0.41993 a 1.3230472,1.3230472 0 0 0 0.0234,0.0293 1.3230472,1.3230472 0 0 0 0.008,0.0215 c 0.0399,0.0611 0.0798,0.12108 0.11719,0.17773 0.10964,0.17107 0.21664,0.34158 0.31836,0.51172 a 1.3230472,1.3230472 0 0 0 0.006,0.0117 c 0.11639,0.19048 0.23114,0.38788 0.3457,0.58984 a 1.3230472,1.3230472 0 0 0 0.002,0.002 c 0.12001,0.21024 0.23956,0.42237 0.35938,0.63476 0.0526,0.0942 0.10549,0.18914 0.1582,0.28516 a 1.3230472,1.3230472 0 0 0 0.0176,0.0312 c 0.004,0.008 0.0101,0.017 0.004,0.006 l 0.004,0.008 c 0.0733,0.13251 0.13748,0.24019 0.18164,0.31836 a 1.3230472,1.3230472 0 0 0 0.002,0 c 0.0225,0.0397 0.0491,0.0902 0.082,0.15039 a 1.3230472,1.3230472 0 0 0 0.0547,0.0918 c 0.0531,0.0808 0.10885,0.16717 0.16796,0.25781 a 1.3230472,1.3230472 0 0 0 0.004,0.006 c 0.0776,0.11751 0.16168,0.25826 0.25586,0.41992 a 1.3230472,1.3230472 0 0 0 0.002,0.006 c 0.0827,0.1404 0.16821,0.29528 0.25977,0.46094 a 1.3230472,1.3230472 0 0 0 0.002,0.002 c 0.0794,0.14304 0.16389,0.30381 0.26172,0.47852 0.0893,0.16154 0.17785,0.3197 0.26172,0.47265 0.045,0.082 0.0868,0.15322 0.12305,0.2168 a 1.3230472,1.3230472 0 0 0 0.16601,0.23047 c 0.0116,0.0129 0.0333,0.0353 0.0527,0.0566 9.8e-4,0.001 0.008,0.01 0.008,0.01 -10e-4,-0.001 0.001,0.003 0,0.002 0.002,0.002 0.004,0.003 0.006,0.006 0.003,0.003 0.005,0.004 0.008,0.008 0.004,0.004 0.008,0.01 0.008,0.01 4e-5,4e-5 0.0679,0.0721 0.0742,0.0781 0.0126,0.012 0.009,0.007 0.008,0.006 0.003,0.003 0.005,0.005 0.0176,0.0176 a 1.3230472,1.3230472 0 0 0 0.004,0.006 c 0.0383,0.0377 0.0694,0.068 0.12109,0.11914 l -0.0449,-0.0469 a 1.3230472,1.3230472 0 0 0 0.13477,0.13281 c 0.0269,0.0231 0.0555,0.0483 0.0859,0.0742 0.0694,0.0615 0.13888,0.12293 0.20899,0.18555 l -0.0156,-0.0117 c 0.109,0.10036 0.19799,0.17275 0.25977,0.22656 a 1.3230472,1.3230472 0 0 0 0.0352,0.0293 c 0.11755,0.0956 0.24306,0.1962 0.37891,0.29883 0.30129,0.22917 0.59986,0.36796 0.84961,0.4707 a 1.3230472,1.3230472 0 0 0 0.0371,0.0156 c 0.395,0.14827 0.76952,0.23514 1.10547,0.30273 a 1.3230472,1.3230472 0 0 0 0.25781,0.0254 h 0.39844 c 3.75407,0.008 6.16427,-4.19652 4.25976,-7.43164 L 70.794922,12.029297 a 1.3230472,1.3230472 0 0 0 -0.002,0 C 69.908868,10.529912 68.295314,9.6045202 66.554687,9.6015625 Z m -0.0059,2.6464845 c 0.809659,0.0014 1.553601,0.427555 1.964844,1.125 L 129.18555,116.39844 h -0.002 c 0.93109,1.58159 -0.13735,3.44916 -1.97265,3.44531 l -0.24024,-0.002 c -0.21844,-0.0469 -0.42104,-0.0958 -0.58007,-0.1543 -0.11796,-0.0506 -0.20045,-0.0948 -0.23243,-0.11914 a 1.3230472,1.3230472 0 0 0 -0.004,-0.004 c -0.0967,-0.073 -0.19777,-0.15366 -0.30664,-0.24218 -0.0717,-0.062 -0.13636,-0.11769 -0.17188,-0.15039 a 1.3230472,1.3230472 0 0 0 -0.0156,-0.0137 c -0.0787,-0.0703 -0.15812,-0.14002 -0.23828,-0.21093 a 1.3230472,1.3230472 0 0 0 -0.0195,-0.0176 c -0.009,-0.007 -0.0183,-0.0157 -0.0273,-0.0234 -6.9e-4,-5.9e-4 -0.001,-0.001 -0.002,-0.002 -0.0301,-0.0297 -0.0634,-0.0618 -0.10352,-0.10157 0.005,0.006 0.0176,0.0215 0.0176,0.0215 -0.006,-0.007 -0.009,-0.008 -0.0137,-0.0137 -0.001,-0.002 -0.003,-0.005 -0.004,-0.008 -0.001,-0.001 -0.004,-0.004 -0.004,-0.004 0,0 6e-5,-0.002 0,-0.002 -0.009,-0.0152 -0.0197,-0.0349 -0.0273,-0.0488 -0.0916,-0.167 -0.18249,-0.33072 -0.26953,-0.48828 a 1.3230472,1.3230472 0 0 0 -0.004,-0.006 c -0.078,-0.13927 -0.16086,-0.29561 -0.25586,-0.4668 l -0.002,-0.002 c -0.0894,-0.16182 -0.18413,-0.33592 -0.29101,-0.51758 l -0.002,-0.004 c -0.0941,-0.16147 -0.19874,-0.34161 -0.32617,-0.53515 l -0.004,-0.006 c -0.0442,-0.0678 -0.0923,-0.14093 -0.14062,-0.21485 -0.023,-0.0422 -0.0463,-0.084 -0.0762,-0.13672 h 0.002 c -0.0739,-0.13087 -0.13559,-0.23156 -0.17578,-0.30468 a 1.3230472,1.3230472 0 0 0 -0.004,-0.006 c -0.0107,-0.0192 -0.01,-0.0179 -0.0117,-0.0215 l -0.006,-0.0117 a 1.3230472,1.3230472 0 0 0 -0.006,-0.01 c -0.0523,-0.0952 -0.10653,-0.19114 -0.16016,-0.28711 a 1.3230472,1.3230472 0 0 0 -0.002,-0.006 c -0.12086,-0.21424 -0.24247,-0.42748 -0.36524,-0.64258 v -0.002 c -0.12218,-0.21538 -0.2493,-0.43159 -0.38281,-0.65039 l -0.002,-0.004 c -0.12127,-0.20274 -0.24435,-0.40132 -0.36914,-0.5957 a 1.3230472,1.3230472 0 0 0 -0.01,-0.0137 c -0.0366,-0.0553 -0.0717,-0.1086 -0.10547,-0.16016 -0.001,-0.002 -0.003,-0.004 -0.004,-0.006 -0.0771,-0.1282 -0.15274,-0.25558 -0.23047,-0.38281 -2.9e-4,-4.8e-4 2.9e-4,-10e-4 0,-0.002 l -0.0117,-0.0176 -54.349612,-92.298831 a 1.3230472,1.3230472 0 0 0 -2.277344,-0.0039 L 10.707031,113.04688 a 1.3230472,1.3230472 0 0 0 -0.002,0.1621 l -0.03711,-0.0605 c -0.28951,0.60156 -0.647465,1.21478 -1.0214846,1.85937 -0.1465325,0.20691 -0.2823996,0.4101 -0.4003906,0.59571 a 1.3230472,1.3230472 0 0 0 -0.00195,0.004 c -0.1780319,0.2816 -0.3511985,0.56147 -0.5234375,0.8418 a 1.3230472,1.3230472 0 0 0 -0.00391,0.004 c -0.1662575,0.27242 -0.3311977,0.54868 -0.4960938,0.83007 a 1.3230472,1.3230472 0 0 0 -0.00195,0.002 c -0.1662843,0.28456 -0.3191432,0.56438 -0.4648438,0.83789 -0.01236,0.0231 -0.021776,0.0427 -0.033203,0.0644 -0.010611,0.0137 -0.033092,0.0428 -0.033203,0.043 -0.1763735,0.2374 -0.2791174,0.40562 -0.4042969,0.60156 a 1.3230472,1.3230472 0 0 0 -0.013672,0.0215 c -0.047244,0.0771 -0.062189,0.10178 -0.082031,0.13476 -0.023958,0.0282 -0.052627,0.0654 -0.080078,0.0996 -9.172e-4,0.001 -0.00103,0.003 -0.00195,0.004 -8.675e-4,9e-4 -0.00306,0.001 -0.00391,0.002 -0.092093,0.0877 -0.1591196,0.13259 -0.4023438,0.28711 -0.088195,0.056 -0.055469,0.034 -0.060547,0.0371 -1.921e-4,1.1e-4 -0.00182,0.002 -0.00195,0.002 -0.010398,0.004 -8.767e-4,-7.3e-4 -0.017578,0.006 -0.05763,0.0217 -0.127849,0.0474 -0.1367187,0.0508 a 1.3230472,1.3230472 0 0 0 -0.015625,0.006 c -0.026756,0.0107 -0.079222,0.0327 -0.125,0.0508 -0.00295,10e-4 -0.00478,0.003 -0.00781,0.004 -0.05391,0.0133 -0.090663,0.0196 -0.1679688,0.0469 -0.0013,4.6e-4 -3.227e-4,-5.7e-4 -0.00195,0 -8.368e-4,3e-4 -0.00111,-2.9e-4 -0.00195,0 -0.00466,0.002 -0.00502,0.002 -0.00977,0.004 -4.26e-4,1.5e-4 -0.0015,-1.6e-4 -0.00195,0 -0.00152,1.2e-4 -0.00237,-1.3e-4 -0.00391,0 -0.00543,4.5e-4 -0.00802,0.001 -0.013672,0.002 -0.1275957,0.006 -0.2353099,0.0118 -0.3105469,0.0137 h 0.033203 c -0.042169,0 -0.046643,0.002 -0.076172,0.004 l -0.2714844,-0.002 C 3.672333,119.60227 2.6094048,117.73232 3.546875,116.1543 a 1.3230472,1.3230472 0 0 0 0,-0.002 L 64.580078,13.365234 c 0.413821,-0.695981 1.159037,-1.118829 1.96875,-1.117187 z M 121.89648,113.27734 c 0.006,0.005 0.0429,0.0415 0.0723,0.0684 l -0.004,0.006 c -0.0202,-0.0218 -0.0654,-0.0711 -0.0684,-0.0742 z m 0.19336,0.1543 0.0664,0.084 c 0.009,0.008 0.0391,0.0371 0.0391,0.0371 0,0 0.0165,0.0349 0.0195,0.041 l 0.0566,0.0723 0.0137,0.0352 c -0.001,-0.001 -0.006,-0.008 -0.008,-0.01 -0.008,-0.0142 -0.0304,-0.038 -0.043,-0.0586 0.004,0.007 0.009,0.018 0.0137,0.0273 -0.048,-0.052 -0.0896,-0.0981 -0.17578,-0.19141 a 1.3230472,1.3230472 0 0 0 -0.006,-0.0352 c 0.0366,0.0334 0.0527,0.0506 0.0742,0.0703 -0.0267,-0.0332 -0.0184,-0.0399 -0.0508,-0.0723 z m 0.28711,0.5 0.0684,0.16992 c -0.01,-0.0285 -0.0225,-0.0713 -0.0469,-0.14062 0.0121,0.0245 0.041,0.086 0.041,0.0859 0,-2e-5 0.004,0.0395 0.006,0.0547 l 0.002,0.008 c 0.0101,0.0813 0.0332,0.26377 0.0332,0.26367 a 1.3230472,1.3230472 0 0 0 -0.10352,-0.44141 z m -2.52148,0.66992 a 1.3230472,1.3230472 0 0 0 0.0117,0.0273 c 2.4e-4,0.002 -2.3e-4,0.004 0,0.006 -0.002,-0.005 -0.0117,-0.0333 -0.0117,-0.0332 z m 0.0684,0.19532 c 0.006,0.0125 0.0118,0.0233 0.0195,0.0391 l -0.006,-0.0234 a 1.3230472,1.3230472 0 0 0 0.0254,0.0625 c 0.0474,0.096 0.068,0.13715 0.10352,0.20898 -0.007,-0.008 -0.0228,-0.0244 -0.0273,-0.0293 -0.002,-0.004 -0.01,-0.0141 -0.0117,-0.0176 a 1.3230472,1.3230472 0 0 0 0.002,0.006 c -0.004,-0.004 -0.0293,-0.0313 -0.0293,-0.0312 1e-5,1e-5 -0.007,-0.0209 -0.008,-0.0234 -8.3e-4,-0.002 -0.0176,-0.0236 -0.0176,-0.0234 l -0.0176,-0.0781 c -0.0134,-0.0383 -0.0174,-0.0447 -0.0332,-0.0898 z M 6.1210937,119.61914 a 1.3230472,1.3230472 0 0 0 -0.125,0.24414 l -0.048828,-0.17773 c -1.887e-4,1.1e-4 0.056126,-0.0267 0.1054688,-0.0508 z m 0.4394532,2.34766 a 1.3230472,1.3230472 0 0 0 0.2597656,0.16601 c -0.04927,0.006 -0.2092633,0.0195 -0.2089844,0.0195 z"
         id="path2124" />
    </g>
  </g>
  <g
     inkscape:label="Euforia"
     inkscape:groupmode="layer"
     id="layer1"
     sodipodi:insensitive="true"
     style="display:none"
     transform="translate(-13.617187,-15.675782)">
    <g
       id="path7245">
      <path
         style="color:#000000;display:inline;fill:#503a30;stroke-width:2.64583;stroke-linejoin:round;-inkscape-stroke:none"
         d="m 66.363507,10.923457 a 3.6152203,3.6152203 0 0 0 -3.115346,1.767396 L 2.0985416,115.67457 a 3.6152203,3.6152203 0 0 0 3.1019996,5.46043 l 121.9331688,0.23833 a 3.6152203,3.6152203 0 0 0 3.12298,-5.449 L 69.471227,12.702292 a 3.6152203,3.6152203 0 0 0 -3.10772,-1.778835 z m -0.01907,10.716865 54.465173,92.491828 -109.258268,-0.21544 z"
         id="path1879" />
      <path
         style="color:#000000;display:inline;fill:#503a30;stroke-linejoin:round;-inkscape-stroke:none"
         d="M 66.365234,9.5996094 C 64.62258,9.596426 63.002085,10.517716 62.111328,12.015625 L 0.9609375,115 c -1.91836838,3.23211 0.477792,7.4499 4.2363281,7.45703 l 121.9335944,0.23828 c 3.75907,0.008 6.17238,-4.20181 4.26562,-7.4414 L 70.611328,12.03125 C 69.726356,10.530538 68.109305,9.6033641 66.367187,9.5996094 Z m -0.0039,2.6464846 c 0.811992,0.0014 1.558245,0.42947 1.970703,1.128906 L 129.1172,116.5957 c 0.93354,1.5861 -0.14003,3.45883 -1.98047,3.45508 L 5.203125,119.8125 c -1.8401306,-0.003 -2.9060052,-1.88049 -1.9667969,-3.46289 L 64.384766,13.367188 c 0.415156,-0.698133 1.164318,-1.122899 1.976562,-1.121094 z m -0.01367,8.072265 a 1.3230472,1.3230472 0 0 0 -1.140625,0.646485 L 10.414063,113.24219 a 1.3230472,1.3230472 0 0 0 1.134765,1.99804 l 109.257812,0.21485 a 1.3230472,1.3230472 0 0 0 1.14258,-1.99414 L 67.484375,20.96875 a 1.3230472,1.3230472 0 0 0 -1.136719,-0.650391 z m -0.0078,3.921875 52.152346,88.564456 -104.619143,-0.20703 z"
         id="path1881" />
    </g>
  </g>
</svg>
